<svg width="1440" height="1356" viewBox="0 0 1440 1356" fill="none" xmlns="http://www.w3.org/2000/svg">
<g clip-path="url(#clip0_145_1034)">
<rect width="1440" height="1356" fill="#1B1E6E"/>
<rect x="-1" width="1441" height="1356" fill="url(#paint0_linear_145_1034)"/>
<rect x="455" y="331" width="529" height="645" rx="70" fill="white"/>
<rect x="478" y="352" width="483" height="603" rx="59" fill="#FAA916"/>
<path d="M179.477 74V47.8182H181.868V61.919H182.098L194.882 47.8182H198.027L186.841 59.9247L197.976 74H195.061L185.358 61.5866L181.868 65.4986V74H179.477ZM208.564 74.4091C206.732 74.4091 205.147 73.983 203.809 73.1307C202.471 72.2699 201.435 71.081 200.702 69.5639C199.978 68.0384 199.615 66.2827 199.615 64.2969C199.615 62.3196 199.978 60.5639 200.702 59.0298C201.435 57.4872 202.445 56.2812 203.732 55.4119C205.027 54.5341 206.523 54.0952 208.219 54.0952C209.284 54.0952 210.311 54.2912 211.3 54.6832C212.289 55.0668 213.175 55.6591 213.959 56.4602C214.752 57.2528 215.378 58.2543 215.838 59.4645C216.299 60.6662 216.529 62.0895 216.529 63.7344V64.8594H201.188V62.8523H214.202C214.202 61.5909 213.946 60.4574 213.435 59.4517C212.932 58.4375 212.229 57.6364 211.326 57.0483C210.431 56.4602 209.395 56.1662 208.219 56.1662C206.975 56.1662 205.88 56.4986 204.934 57.1634C203.988 57.8281 203.246 58.706 202.709 59.7969C202.181 60.8878 201.912 62.081 201.904 63.3764V64.5781C201.904 66.1378 202.172 67.5014 202.709 68.669C203.255 69.8281 204.026 70.7273 205.023 71.3665C206.02 72.0057 207.201 72.3253 208.564 72.3253C209.493 72.3253 210.307 72.1804 211.006 71.8906C211.713 71.6009 212.306 71.2131 212.783 70.7273C213.269 70.233 213.635 69.6918 213.882 69.1037L216.043 69.8068C215.745 70.6335 215.255 71.3963 214.573 72.0952C213.9 72.794 213.056 73.3565 212.042 73.7827C211.036 74.2003 209.877 74.4091 208.564 74.4091ZM221.543 74V54.3636H223.755V57.3807H223.96C224.352 56.3665 225.004 55.5696 225.915 54.9901C226.836 54.402 227.94 54.108 229.227 54.108C230.582 54.108 231.694 54.4276 232.563 55.0668C233.441 55.6974 234.097 56.5668 234.532 57.6747H234.698C235.141 56.5838 235.862 55.7187 236.859 55.0795C237.864 54.4318 239.083 54.108 240.515 54.108C242.339 54.108 243.779 54.6832 244.836 55.8338C245.893 56.9759 246.421 58.6463 246.421 60.8452V74H244.146V60.8452C244.146 59.294 243.749 58.1307 242.957 57.3551C242.164 56.5795 241.12 56.1918 239.825 56.1918C238.325 56.1918 237.17 56.652 236.36 57.5724C235.55 58.4929 235.146 59.6605 235.146 61.0753V74H232.819V60.6406C232.819 59.3111 232.448 58.2372 231.707 57.419C230.965 56.6009 229.921 56.1918 228.575 56.1918C227.671 56.1918 226.857 56.4134 226.133 56.8565C225.417 57.2997 224.85 57.9176 224.433 58.7102C224.023 59.4943 223.819 60.3977 223.819 61.4205V74H221.543ZM252.919 74V47.8182H255.207V58.1094H255.412C255.667 57.5213 256.034 56.9162 256.511 56.294C256.997 55.6719 257.632 55.152 258.416 54.7344C259.208 54.3082 260.206 54.0952 261.407 54.0952C263.018 54.0952 264.433 54.5213 265.652 55.3736C266.87 56.2173 267.821 57.402 268.502 58.9276C269.184 60.4446 269.525 62.2131 269.525 64.233C269.525 66.2614 269.184 68.0384 268.502 69.5639C267.829 71.0895 266.883 72.2784 265.664 73.1307C264.454 73.983 263.048 74.4091 261.446 74.4091C260.252 74.4091 259.255 74.196 258.454 73.7699C257.662 73.3437 257.022 72.8196 256.537 72.1974C256.051 71.5668 255.676 70.9531 255.412 70.3565H255.13V74H252.919ZM255.169 64.1946C255.169 65.7798 255.403 67.1861 255.872 68.4134C256.349 69.6321 257.031 70.5909 257.917 71.2898C258.812 71.9801 259.895 72.3253 261.164 72.3253C262.468 72.3253 263.572 71.9673 264.475 71.2514C265.379 70.527 266.065 69.5511 266.534 68.3239C267.002 67.0966 267.237 65.7202 267.237 64.1946C267.237 62.6861 267.002 61.3267 266.534 60.1165C266.074 58.9062 265.392 57.9474 264.488 57.2401C263.585 56.5241 262.477 56.1662 261.164 56.1662C259.886 56.1662 258.799 56.5114 257.904 57.2017C257.018 57.8835 256.341 58.8295 255.872 60.0398C255.403 61.2415 255.169 62.6264 255.169 64.1946ZM280.008 74.4474C278.824 74.4474 277.741 74.2173 276.761 73.7571C275.781 73.2884 275.001 72.6151 274.422 71.7372C273.842 70.8509 273.552 69.777 273.552 68.5156C273.552 67.544 273.735 66.7259 274.102 66.0611C274.468 65.3963 274.988 64.8509 275.662 64.4247C276.335 63.9986 277.132 63.6619 278.052 63.4148C278.973 63.1676 279.987 62.9759 281.095 62.8395C282.194 62.7031 283.123 62.5838 283.882 62.4815C284.649 62.3793 285.233 62.2173 285.633 61.9957C286.034 61.7741 286.234 61.4162 286.234 60.9219V60.4616C286.234 59.1236 285.833 58.071 285.032 57.304C284.24 56.5284 283.098 56.1406 281.606 56.1406C280.191 56.1406 279.037 56.4517 278.142 57.0739C277.255 57.696 276.633 58.429 276.275 59.2727L274.115 58.4929C274.558 57.419 275.172 56.5625 275.956 55.9233C276.74 55.2756 277.618 54.8111 278.589 54.5298C279.561 54.2401 280.545 54.0952 281.542 54.0952C282.292 54.0952 283.072 54.1932 283.882 54.3892C284.7 54.5852 285.458 54.9261 286.157 55.4119C286.856 55.8892 287.423 56.5582 287.858 57.419C288.292 58.2713 288.51 59.3537 288.51 60.6662V74H286.234V70.8935H286.093C285.821 71.473 285.416 72.0355 284.879 72.581C284.342 73.1264 283.669 73.5739 282.859 73.9233C282.049 74.2727 281.099 74.4474 280.008 74.4474ZM280.315 72.3636C281.525 72.3636 282.574 72.0952 283.46 71.5582C284.346 71.0213 285.028 70.3097 285.505 69.4233C285.991 68.5284 286.234 67.544 286.234 66.4702V63.6321C286.064 63.794 285.778 63.9389 285.377 64.0668C284.985 64.1946 284.529 64.3097 284.01 64.4119C283.498 64.5057 282.987 64.5866 282.475 64.6548C281.964 64.723 281.504 64.7827 281.095 64.8338C279.987 64.9702 279.041 65.1832 278.257 65.473C277.473 65.7628 276.872 66.1634 276.454 66.6747C276.037 67.1776 275.828 67.8253 275.828 68.6179C275.828 69.8111 276.254 70.7358 277.106 71.392C277.958 72.0398 279.028 72.3636 280.315 72.3636ZM296.838 47.8182V74H294.563V47.8182H296.838ZM302.885 74V54.3636H305.174V74H302.885ZM304.049 50.9886C303.58 50.9886 303.179 50.831 302.847 50.5156C302.515 50.1918 302.348 49.804 302.348 49.3523C302.348 48.9006 302.515 48.517 302.847 48.2017C303.179 47.8778 303.58 47.7159 304.049 47.7159C304.517 47.7159 304.918 47.8778 305.25 48.2017C305.583 48.517 305.749 48.9006 305.749 49.3523C305.749 49.804 305.583 50.1918 305.25 50.5156C304.918 50.831 304.517 50.9886 304.049 50.9886Z" fill="#F5F3FF"/>
<g clip-path="url(#clip1_145_1034)">
<path d="M112.169 63.4327C112.269 63.5751 112.349 63.7361 112.47 63.8571C115.408 66.7948 118.35 69.7296 121.294 72.6614C121.38 72.7473 121.499 72.801 121.603 72.8693C121.838 72.9122 122.073 72.9561 122.309 72.999C123.007 72.8888 123.159 71.8692 122.625 71.4487C120.272 68.8515 117.6 66.5441 115.198 63.9937C115.303 63.981 115.367 63.9732 115.43 63.9664C115.482 63.9703 115.534 63.9771 115.586 63.9771C127.328 63.9771 139.07 63.9771 150.813 63.9752C150.92 63.9752 151.028 63.9322 151.135 63.9098L151.127 63.8991C151.502 63.9391 151.716 63.7137 151.896 63.4327C151.923 63.3029 151.948 63.1732 151.975 63.0434C151.983 62.9654 151.992 62.8873 152.001 62.8093C151.814 62.6053 151.627 62.4024 151.441 62.1985C151.339 62.1722 151.236 62.1458 151.133 62.1195C150.978 62.1156 150.821 62.1078 150.666 62.1078C138.991 62.1078 127.317 62.1078 115.643 62.1039C115.5 62.1039 115.357 62.059 115.213 62.0356C116.95 60.3096 118.69 58.5847 120.425 56.8558C121.085 56.1982 121.736 55.5318 122.391 54.8694C122.716 54.5679 123.041 54.281 122.97 53.7981C122.901 53.3229 122.479 52.9561 121.997 53.0039C121.89 53.0507 121.783 53.0966 121.676 53.1434C119.908 54.3581 118.41 56.2977 116.891 57.8139C115.281 59.4198 113.622 60.9897 112.069 62.6502C112.046 62.6502 112.023 62.6512 112 62.6531L112 63.2766C112.057 63.3283 112.112 63.38 112.169 63.4327Z" fill="#F5F3FF"/>
</g>
<path d="M456.545 1066.23V1063.73H474V1066.23H466.682V1087H463.864V1066.23H456.545ZM482.773 1087.36C481.091 1087.36 479.64 1086.99 478.42 1086.25C477.208 1085.5 476.273 1084.45 475.614 1083.11C474.962 1081.77 474.636 1080.2 474.636 1078.41C474.636 1076.62 474.962 1075.05 475.614 1073.68C476.273 1072.31 477.189 1071.24 478.364 1070.48C479.545 1069.7 480.924 1069.32 482.5 1069.32C483.409 1069.32 484.307 1069.47 485.193 1069.77C486.08 1070.08 486.886 1070.57 487.614 1071.25C488.341 1071.92 488.92 1072.82 489.352 1073.93C489.784 1075.05 490 1076.42 490 1078.05V1079.18H476.545V1076.86H487.273C487.273 1075.88 487.076 1075 486.682 1074.23C486.295 1073.45 485.742 1072.84 485.023 1072.4C484.311 1071.95 483.47 1071.73 482.5 1071.73C481.432 1071.73 480.508 1071.99 479.727 1072.52C478.955 1073.05 478.36 1073.73 477.943 1074.57C477.527 1075.41 477.318 1076.31 477.318 1077.27V1078.82C477.318 1080.14 477.545 1081.25 478 1082.17C478.462 1083.08 479.102 1083.77 479.92 1084.25C480.739 1084.72 481.689 1084.95 482.773 1084.95C483.477 1084.95 484.114 1084.86 484.682 1084.66C485.258 1084.45 485.754 1084.15 486.17 1083.75C486.587 1083.34 486.909 1082.83 487.136 1082.23L489.727 1082.95C489.455 1083.83 488.996 1084.61 488.352 1085.27C487.708 1085.93 486.913 1086.45 485.966 1086.82C485.019 1087.18 483.955 1087.36 482.773 1087.36ZM506.443 1073.45L504.034 1074.14C503.883 1073.73 503.659 1073.34 503.364 1072.97C503.076 1072.58 502.682 1072.26 502.182 1072.01C501.682 1071.76 501.042 1071.64 500.261 1071.64C499.193 1071.64 498.303 1071.88 497.591 1072.38C496.886 1072.86 496.534 1073.48 496.534 1074.23C496.534 1074.89 496.777 1075.42 497.261 1075.81C497.746 1076.19 498.504 1076.52 499.534 1076.77L502.125 1077.41C503.686 1077.79 504.848 1078.37 505.614 1079.15C506.379 1079.92 506.761 1080.92 506.761 1082.14C506.761 1083.14 506.473 1084.03 505.898 1084.82C505.33 1085.61 504.534 1086.23 503.511 1086.68C502.489 1087.14 501.299 1087.36 499.943 1087.36C498.163 1087.36 496.689 1086.98 495.523 1086.2C494.356 1085.43 493.617 1084.3 493.307 1082.82L495.852 1082.18C496.095 1083.12 496.553 1083.83 497.227 1084.3C497.909 1084.77 498.799 1085 499.898 1085C501.148 1085 502.14 1084.73 502.875 1084.2C503.617 1083.67 503.989 1083.02 503.989 1082.27C503.989 1081.67 503.777 1081.16 503.352 1080.75C502.928 1080.33 502.277 1080.02 501.398 1079.82L498.489 1079.14C496.89 1078.76 495.716 1078.17 494.966 1077.38C494.223 1076.57 493.852 1075.57 493.852 1074.36C493.852 1073.38 494.129 1072.51 494.682 1071.75C495.242 1070.99 496.004 1070.4 496.966 1069.97C497.936 1069.53 499.034 1069.32 500.261 1069.32C501.989 1069.32 503.345 1069.7 504.33 1070.45C505.322 1071.21 506.027 1072.21 506.443 1073.45ZM535.435 1063.73H538.253V1079.14C538.253 1080.73 537.878 1082.15 537.128 1083.4C536.385 1084.64 535.336 1085.62 533.98 1086.34C532.624 1087.05 531.033 1087.41 529.207 1087.41C527.382 1087.41 525.791 1087.05 524.435 1086.34C523.079 1085.62 522.026 1084.64 521.276 1083.4C520.533 1082.15 520.162 1080.73 520.162 1079.14V1063.73H522.98V1078.91C522.98 1080.05 523.23 1081.06 523.73 1081.94C524.23 1082.82 524.942 1083.52 525.866 1084.02C526.798 1084.52 527.912 1084.77 529.207 1084.77C530.503 1084.77 531.616 1084.52 532.548 1084.02C533.48 1083.52 534.192 1082.82 534.685 1081.94C535.185 1081.06 535.435 1080.05 535.435 1078.91V1063.73ZM546.199 1063.73V1087H543.517V1063.73H546.199ZM556.247 1087.41C555.141 1087.41 554.137 1087.2 553.236 1086.78C552.334 1086.36 551.618 1085.75 551.088 1084.95C550.558 1084.15 550.293 1083.18 550.293 1082.05C550.293 1081.05 550.49 1080.23 550.884 1079.61C551.277 1078.98 551.804 1078.49 552.463 1078.14C553.122 1077.78 553.849 1077.52 554.645 1077.34C555.448 1077.16 556.255 1077.02 557.065 1076.91C558.126 1076.77 558.986 1076.67 559.645 1076.6C560.312 1076.53 560.796 1076.4 561.099 1076.23C561.41 1076.05 561.565 1075.75 561.565 1075.32V1075.23C561.565 1074.11 561.259 1073.23 560.645 1072.61C560.039 1071.99 559.118 1071.68 557.884 1071.68C556.603 1071.68 555.599 1071.96 554.872 1072.52C554.145 1073.08 553.634 1073.68 553.338 1074.32L550.793 1073.41C551.247 1072.35 551.853 1071.52 552.611 1070.93C553.376 1070.33 554.209 1069.92 555.111 1069.68C556.02 1069.44 556.914 1069.32 557.793 1069.32C558.353 1069.32 558.997 1069.39 559.724 1069.52C560.459 1069.65 561.168 1069.92 561.849 1070.33C562.539 1070.74 563.111 1071.36 563.565 1072.18C564.02 1073.01 564.247 1074.11 564.247 1075.5V1087H561.565V1084.64H561.429C561.247 1085.02 560.944 1085.42 560.52 1085.85C560.096 1086.28 559.531 1086.65 558.827 1086.95C558.122 1087.26 557.262 1087.41 556.247 1087.41ZM556.656 1085C557.717 1085 558.611 1084.79 559.338 1084.38C560.073 1083.96 560.626 1083.42 560.997 1082.76C561.376 1082.1 561.565 1081.41 561.565 1080.68V1078.23C561.452 1078.36 561.202 1078.49 560.815 1078.6C560.437 1078.71 559.997 1078.8 559.497 1078.89C559.005 1078.96 558.524 1079.03 558.054 1079.09C557.592 1079.14 557.217 1079.19 556.929 1079.23C556.232 1079.32 555.58 1079.47 554.974 1079.67C554.376 1079.87 553.891 1080.17 553.52 1080.57C553.156 1080.96 552.974 1081.5 552.974 1082.18C552.974 1083.11 553.319 1083.82 554.009 1084.3C554.705 1084.77 555.588 1085 556.656 1085ZM571.824 1076.5V1087H569.142V1069.55H571.733V1072.27H571.96C572.369 1071.39 572.991 1070.67 573.824 1070.14C574.657 1069.59 575.733 1069.32 577.051 1069.32C578.233 1069.32 579.267 1069.56 580.153 1070.05C581.04 1070.52 581.729 1071.25 582.222 1072.23C582.714 1073.2 582.96 1074.42 582.96 1075.91V1087H580.278V1076.09C580.278 1074.72 579.922 1073.65 579.21 1072.89C578.498 1072.11 577.521 1071.73 576.278 1071.73C575.422 1071.73 574.657 1071.91 573.983 1072.28C573.316 1072.66 572.79 1073.2 572.403 1073.91C572.017 1074.62 571.824 1075.48 571.824 1076.5ZM594.906 1093.91C593.611 1093.91 592.497 1093.74 591.565 1093.41C590.634 1093.08 589.857 1092.65 589.236 1092.11C588.622 1091.58 588.134 1091.02 587.77 1090.41L589.906 1088.91C590.149 1089.23 590.455 1089.59 590.827 1090C591.198 1090.42 591.705 1090.78 592.349 1091.08C593.001 1091.39 593.853 1091.55 594.906 1091.55C596.315 1091.55 597.478 1091.2 598.395 1090.52C599.312 1089.84 599.77 1088.77 599.77 1087.32V1083.77H599.543C599.346 1084.09 599.065 1084.48 598.702 1084.95C598.346 1085.42 597.83 1085.83 597.156 1086.19C596.49 1086.55 595.588 1086.73 594.452 1086.73C593.043 1086.73 591.777 1086.39 590.656 1085.73C589.543 1085.06 588.66 1084.09 588.009 1082.82C587.365 1081.55 587.043 1080 587.043 1078.18C587.043 1076.39 587.357 1074.84 587.986 1073.51C588.615 1072.18 589.49 1071.15 590.611 1070.42C591.732 1069.69 593.027 1069.32 594.497 1069.32C595.634 1069.32 596.535 1069.51 597.202 1069.89C597.876 1070.26 598.391 1070.68 598.747 1071.16C599.111 1071.63 599.391 1072.02 599.588 1072.32H599.861V1069.55H602.452V1087.5C602.452 1089 602.111 1090.22 601.429 1091.16C600.755 1092.11 599.846 1092.8 598.702 1093.24C597.565 1093.69 596.3 1093.91 594.906 1093.91ZM594.815 1084.32C595.891 1084.32 596.8 1084.07 597.543 1083.58C598.285 1083.09 598.849 1082.38 599.236 1081.45C599.622 1080.53 599.815 1079.42 599.815 1078.14C599.815 1076.88 599.626 1075.77 599.247 1074.81C598.868 1073.84 598.308 1073.09 597.565 1072.55C596.823 1072 595.906 1071.73 594.815 1071.73C593.679 1071.73 592.732 1072.02 591.974 1072.59C591.224 1073.17 590.66 1073.94 590.281 1074.91C589.91 1075.88 589.724 1076.95 589.724 1078.14C589.724 1079.35 589.914 1080.42 590.293 1081.35C590.679 1082.28 591.247 1083 591.997 1083.53C592.755 1084.06 593.694 1084.32 594.815 1084.32Z" fill="#E9EAFF"/>
<path d="M455 1093.36H589.279V1095.55H455V1093.36ZM600.541 1093.36H604.906V1095.55H600.541V1093.36Z" fill="#E9EAFF"/>
<path d="M740.545 1069.55C740.409 1068.39 739.856 1067.5 738.886 1066.86C737.917 1066.23 736.727 1065.91 735.318 1065.91C734.288 1065.91 733.386 1066.08 732.614 1066.41C731.848 1066.74 731.25 1067.2 730.818 1067.78C730.394 1068.37 730.182 1069.03 730.182 1069.77C730.182 1070.39 730.33 1070.93 730.625 1071.38C730.928 1071.81 731.314 1072.18 731.784 1072.48C732.254 1072.77 732.746 1073 733.261 1073.19C733.777 1073.37 734.25 1073.52 734.682 1073.64L737.045 1074.27C737.652 1074.43 738.326 1074.65 739.068 1074.93C739.818 1075.21 740.534 1075.59 741.216 1076.08C741.905 1076.56 742.473 1077.17 742.92 1077.92C743.367 1078.67 743.591 1079.59 743.591 1080.68C743.591 1081.94 743.261 1083.08 742.602 1084.09C741.951 1085.11 740.996 1085.91 739.739 1086.51C738.489 1087.11 736.97 1087.41 735.182 1087.41C733.515 1087.41 732.072 1087.14 730.852 1086.6C729.64 1086.06 728.686 1085.31 727.989 1084.35C727.299 1083.39 726.909 1082.27 726.818 1081H729.727C729.803 1081.88 730.098 1082.61 730.614 1083.18C731.136 1083.75 731.795 1084.17 732.591 1084.45C733.394 1084.73 734.258 1084.86 735.182 1084.86C736.258 1084.86 737.223 1084.69 738.08 1084.34C738.936 1083.98 739.614 1083.49 740.114 1082.86C740.614 1082.23 740.864 1081.48 740.864 1080.64C740.864 1079.86 740.648 1079.23 740.216 1078.75C739.784 1078.27 739.216 1077.87 738.511 1077.57C737.807 1077.27 737.045 1077 736.227 1076.77L733.364 1075.95C731.545 1075.43 730.106 1074.69 729.045 1073.72C727.985 1072.75 727.455 1071.48 727.455 1069.91C727.455 1068.61 727.807 1067.47 728.511 1066.5C729.223 1065.52 730.178 1064.77 731.375 1064.23C732.58 1063.68 733.924 1063.41 735.409 1063.41C736.909 1063.41 738.242 1063.68 739.409 1064.22C740.576 1064.75 741.5 1065.47 742.182 1066.4C742.871 1067.32 743.235 1068.37 743.273 1069.55H740.545ZM750.543 1076.5V1087H747.861V1063.73H750.543V1072.27H750.77C751.179 1071.37 751.793 1070.66 752.611 1070.12C753.437 1069.59 754.535 1069.32 755.906 1069.32C757.096 1069.32 758.137 1069.56 759.031 1070.03C759.925 1070.5 760.618 1071.23 761.111 1072.2C761.611 1073.17 761.861 1074.41 761.861 1075.91V1087H759.179V1076.09C759.179 1074.7 758.819 1073.63 758.099 1072.88C757.387 1072.11 756.399 1071.73 755.134 1071.73C754.255 1071.73 753.467 1071.91 752.77 1072.28C752.08 1072.66 751.535 1073.2 751.134 1073.91C750.74 1074.62 750.543 1075.48 750.543 1076.5ZM771.903 1087.41C770.797 1087.41 769.794 1087.2 768.892 1086.78C767.991 1086.36 767.275 1085.75 766.744 1084.95C766.214 1084.15 765.949 1083.18 765.949 1082.05C765.949 1081.05 766.146 1080.23 766.54 1079.61C766.934 1078.98 767.46 1078.49 768.119 1078.14C768.778 1077.78 769.506 1077.52 770.301 1077.34C771.104 1077.16 771.911 1077.02 772.722 1076.91C773.782 1076.77 774.642 1076.67 775.301 1076.6C775.968 1076.53 776.453 1076.4 776.756 1076.23C777.066 1076.05 777.222 1075.75 777.222 1075.32V1075.23C777.222 1074.11 776.915 1073.23 776.301 1072.61C775.695 1071.99 774.775 1071.68 773.54 1071.68C772.259 1071.68 771.256 1071.96 770.528 1072.52C769.801 1073.08 769.29 1073.68 768.994 1074.32L766.449 1073.41C766.903 1072.35 767.509 1071.52 768.267 1070.93C769.032 1070.33 769.866 1069.92 770.767 1069.68C771.676 1069.44 772.57 1069.32 773.449 1069.32C774.009 1069.32 774.653 1069.39 775.381 1069.52C776.116 1069.65 776.824 1069.92 777.506 1070.33C778.195 1070.74 778.767 1071.36 779.222 1072.18C779.676 1073.01 779.903 1074.11 779.903 1075.5V1087H777.222V1084.64H777.085C776.903 1085.02 776.6 1085.42 776.176 1085.85C775.752 1086.28 775.188 1086.65 774.483 1086.95C773.778 1087.26 772.919 1087.41 771.903 1087.41ZM772.312 1085C773.373 1085 774.267 1084.79 774.994 1084.38C775.729 1083.96 776.282 1083.42 776.653 1082.76C777.032 1082.1 777.222 1081.41 777.222 1080.68V1078.23C777.108 1078.36 776.858 1078.49 776.472 1078.6C776.093 1078.71 775.653 1078.8 775.153 1078.89C774.661 1078.96 774.18 1079.03 773.71 1079.09C773.248 1079.14 772.873 1079.19 772.585 1079.23C771.888 1079.32 771.237 1079.47 770.631 1079.67C770.032 1079.87 769.547 1080.17 769.176 1080.57C768.813 1080.96 768.631 1081.5 768.631 1082.18C768.631 1083.11 768.975 1083.82 769.665 1084.3C770.362 1084.77 771.244 1085 772.312 1085ZM784.798 1087V1069.55H787.389V1072.18H787.571C787.889 1071.32 788.465 1070.62 789.298 1070.08C790.132 1069.54 791.071 1069.27 792.116 1069.27C792.313 1069.27 792.56 1069.28 792.855 1069.28C793.151 1069.29 793.374 1069.3 793.526 1069.32V1072.05C793.435 1072.02 793.226 1071.99 792.901 1071.94C792.582 1071.89 792.245 1071.86 791.889 1071.86C791.041 1071.86 790.283 1072.04 789.616 1072.4C788.957 1072.75 788.435 1073.23 788.048 1073.85C787.67 1074.47 787.48 1075.17 787.48 1075.95V1087H784.798ZM803.491 1087.36C801.81 1087.36 800.359 1086.99 799.139 1086.25C797.927 1085.5 796.991 1084.45 796.332 1083.11C795.681 1081.77 795.355 1080.2 795.355 1078.41C795.355 1076.62 795.681 1075.05 796.332 1073.68C796.991 1072.31 797.908 1071.24 799.082 1070.48C800.264 1069.7 801.643 1069.32 803.219 1069.32C804.128 1069.32 805.026 1069.47 805.912 1069.77C806.798 1070.08 807.605 1070.57 808.332 1071.25C809.06 1071.92 809.639 1072.82 810.071 1073.93C810.503 1075.05 810.719 1076.42 810.719 1078.05V1079.18H797.264V1076.86H807.991C807.991 1075.88 807.795 1075 807.401 1074.23C807.014 1073.45 806.461 1072.84 805.741 1072.4C805.029 1071.95 804.188 1071.73 803.219 1071.73C802.151 1071.73 801.226 1071.99 800.446 1072.52C799.673 1073.05 799.079 1073.73 798.662 1074.57C798.245 1075.41 798.037 1076.31 798.037 1077.27V1078.82C798.037 1080.14 798.264 1081.25 798.719 1082.17C799.181 1083.08 799.821 1083.77 800.639 1084.25C801.457 1084.72 802.408 1084.95 803.491 1084.95C804.196 1084.95 804.832 1084.86 805.401 1084.66C805.976 1084.45 806.473 1084.15 806.889 1083.75C807.306 1083.34 807.628 1082.83 807.855 1082.23L810.446 1082.95C810.173 1083.83 809.715 1084.61 809.071 1085.27C808.427 1085.93 807.632 1086.45 806.685 1086.82C805.738 1087.18 804.673 1087.36 803.491 1087.36ZM826.298 1080.64L826.253 1077.32H826.798L834.435 1069.55H837.753L829.616 1077.77H829.389L826.298 1080.64ZM823.798 1087V1063.73H826.48V1087H823.798ZM834.889 1087L828.071 1078.36L829.98 1076.5L838.298 1087H834.889ZM847.804 1087.36C846.122 1087.36 844.671 1086.99 843.452 1086.25C842.24 1085.5 841.304 1084.45 840.645 1083.11C839.993 1081.77 839.668 1080.2 839.668 1078.41C839.668 1076.62 839.993 1075.05 840.645 1073.68C841.304 1072.31 842.221 1071.24 843.395 1070.48C844.577 1069.7 845.955 1069.32 847.531 1069.32C848.44 1069.32 849.338 1069.47 850.224 1069.77C851.111 1070.08 851.918 1070.57 852.645 1071.25C853.372 1071.92 853.952 1072.82 854.384 1073.93C854.815 1075.05 855.031 1076.42 855.031 1078.05V1079.18H841.577V1076.86H852.304C852.304 1075.88 852.107 1075 851.713 1074.23C851.327 1073.45 850.774 1072.84 850.054 1072.4C849.342 1071.95 848.501 1071.73 847.531 1071.73C846.463 1071.73 845.539 1071.99 844.759 1072.52C843.986 1073.05 843.391 1073.73 842.974 1074.57C842.558 1075.41 842.349 1076.31 842.349 1077.27V1078.82C842.349 1080.14 842.577 1081.25 843.031 1082.17C843.493 1083.08 844.134 1083.77 844.952 1084.25C845.77 1084.72 846.721 1084.95 847.804 1084.95C848.509 1084.95 849.145 1084.86 849.713 1084.66C850.289 1084.45 850.785 1084.15 851.202 1083.75C851.618 1083.34 851.94 1082.83 852.168 1082.23L854.759 1082.95C854.486 1083.83 854.027 1084.61 853.384 1085.27C852.74 1085.93 851.944 1086.45 850.997 1086.82C850.05 1087.18 848.986 1087.36 847.804 1087.36ZM861.065 1087.18C860.505 1087.18 860.024 1086.98 859.622 1086.58C859.221 1086.18 859.02 1085.7 859.02 1085.14C859.02 1084.58 859.221 1084.09 859.622 1083.69C860.024 1083.29 860.505 1083.09 861.065 1083.09C861.626 1083.09 862.107 1083.29 862.509 1083.69C862.91 1084.09 863.111 1084.58 863.111 1085.14C863.111 1085.51 863.016 1085.85 862.827 1086.16C862.645 1086.47 862.399 1086.72 862.088 1086.91C861.785 1087.09 861.444 1087.18 861.065 1087.18ZM861.065 1074.23C860.505 1074.23 860.024 1074.03 859.622 1073.62C859.221 1073.22 859.02 1072.74 859.02 1072.18C859.02 1071.62 859.221 1071.14 859.622 1070.74C860.024 1070.34 860.505 1070.14 861.065 1070.14C861.626 1070.14 862.107 1070.34 862.509 1070.74C862.91 1071.14 863.111 1071.62 863.111 1072.18C863.111 1072.55 863.016 1072.89 862.827 1073.2C862.645 1073.52 862.399 1073.77 862.088 1073.95C861.785 1074.14 861.444 1074.23 861.065 1074.23Z" fill="#E9EAFF"/>
<rect width="1215" height="4" transform="matrix(1 0 0 -1 112 1226)" fill="#F5F3FF"/>
<path d="M119.543 1305H112.952L122.994 1275.91H130.92L140.949 1305H134.358L127.071 1282.56H126.844L119.543 1305ZM119.131 1293.57H134.699V1298.37H119.131V1293.57ZM150.388 1292.39V1305H144.337V1283.18H150.104V1287.03H150.359C150.842 1285.76 151.652 1284.76 152.788 1284.02C153.925 1283.27 155.303 1282.9 156.922 1282.9C158.437 1282.9 159.758 1283.23 160.885 1283.89C162.012 1284.55 162.888 1285.5 163.513 1286.73C164.138 1287.95 164.45 1289.41 164.45 1291.11V1305H158.399V1292.19C158.409 1290.85 158.068 1289.81 157.376 1289.06C156.685 1288.3 155.733 1287.93 154.521 1287.93C153.707 1287.93 152.987 1288.1 152.362 1288.45C151.747 1288.8 151.264 1289.31 150.913 1289.99C150.572 1290.65 150.397 1291.45 150.388 1292.39ZM179.077 1305.43C176.871 1305.43 174.963 1304.96 173.353 1304.02C171.753 1303.07 170.517 1301.76 169.646 1300.07C168.774 1298.38 168.339 1296.41 168.339 1294.18C168.339 1291.92 168.774 1289.95 169.646 1288.27C170.517 1286.57 171.753 1285.26 173.353 1284.32C174.963 1283.37 176.871 1282.9 179.077 1282.9C181.284 1282.9 183.187 1283.37 184.788 1284.32C186.397 1285.26 187.638 1286.57 188.509 1288.27C189.38 1289.95 189.816 1291.92 189.816 1294.18C189.816 1296.41 189.38 1298.38 188.509 1300.07C187.638 1301.76 186.397 1303.07 184.788 1304.02C183.187 1304.96 181.284 1305.43 179.077 1305.43ZM179.106 1300.74C180.11 1300.74 180.948 1300.45 181.62 1299.89C182.292 1299.31 182.799 1298.52 183.14 1297.53C183.49 1296.53 183.665 1295.4 183.665 1294.13C183.665 1292.86 183.49 1291.73 183.14 1290.74C182.799 1289.74 182.292 1288.96 181.62 1288.38C180.948 1287.8 180.11 1287.51 179.106 1287.51C178.093 1287.51 177.24 1287.8 176.549 1288.38C175.867 1288.96 175.351 1289.74 175.001 1290.74C174.66 1291.73 174.489 1292.86 174.489 1294.13C174.489 1295.4 174.66 1296.53 175.001 1297.53C175.351 1298.52 175.867 1299.31 176.549 1299.89C177.24 1300.45 178.093 1300.74 179.106 1300.74ZM205.356 1283.18V1287.73H192.217V1283.18H205.356ZM195.2 1277.95H201.251V1298.3C201.251 1298.85 201.336 1299.29 201.506 1299.6C201.677 1299.91 201.914 1300.12 202.217 1300.24C202.529 1300.36 202.889 1300.43 203.296 1300.43C203.58 1300.43 203.864 1300.4 204.148 1300.36C204.433 1300.3 204.65 1300.26 204.802 1300.23L205.754 1304.73C205.451 1304.82 205.024 1304.93 204.475 1305.06C203.926 1305.19 203.258 1305.27 202.472 1305.3C201.014 1305.36 199.736 1305.16 198.637 1304.72C197.548 1304.27 196.701 1303.58 196.094 1302.64C195.488 1301.7 195.19 1300.52 195.2 1299.09V1277.95ZM218.921 1305.43C216.715 1305.43 214.807 1304.96 213.197 1304.02C211.596 1303.07 210.361 1301.76 209.489 1300.07C208.618 1298.38 208.183 1296.41 208.183 1294.18C208.183 1291.92 208.618 1289.95 209.489 1288.27C210.361 1286.57 211.596 1285.26 213.197 1284.32C214.807 1283.37 216.715 1282.9 218.921 1282.9C221.128 1282.9 223.031 1283.37 224.631 1284.32C226.241 1285.26 227.482 1286.57 228.353 1288.27C229.224 1289.95 229.66 1291.92 229.66 1294.18C229.66 1296.41 229.224 1298.38 228.353 1300.07C227.482 1301.76 226.241 1303.07 224.631 1304.02C223.031 1304.96 221.128 1305.43 218.921 1305.43ZM218.95 1300.74C219.953 1300.74 220.791 1300.45 221.464 1299.89C222.136 1299.31 222.643 1298.52 222.984 1297.53C223.334 1296.53 223.509 1295.4 223.509 1294.13C223.509 1292.86 223.334 1291.73 222.984 1290.74C222.643 1289.74 222.136 1288.96 221.464 1288.38C220.791 1287.8 219.953 1287.51 218.95 1287.51C217.936 1287.51 217.084 1287.8 216.393 1288.38C215.711 1288.96 215.195 1289.74 214.844 1290.74C214.504 1291.73 214.333 1292.86 214.333 1294.13C214.333 1295.4 214.504 1296.53 214.844 1297.53C215.195 1298.52 215.711 1299.31 216.393 1299.89C217.084 1300.45 217.936 1300.74 218.95 1300.74Z" fill="#F5F3FF"/>
<path d="M1009.3 1290.73C1009.3 1289.95 1009.49 1289.24 1009.87 1288.6C1010.25 1287.96 1010.76 1287.46 1011.4 1287.08C1012.04 1286.7 1012.75 1286.51 1013.52 1286.51C1014.2 1286.51 1014.82 1286.65 1015.38 1286.94C1015.96 1287.23 1016.43 1287.63 1016.8 1288.13C1017.18 1288.62 1017.41 1289.19 1017.5 1289.82H1015.78C1015.69 1289.33 1015.42 1288.93 1014.99 1288.62C1014.56 1288.31 1014.07 1288.16 1013.52 1288.16C1013.05 1288.16 1012.62 1288.27 1012.23 1288.5C1011.84 1288.74 1011.53 1289.05 1011.3 1289.43C1011.07 1289.82 1010.95 1290.25 1010.95 1290.73C1010.95 1291.2 1011.07 1291.63 1011.3 1292.02C1011.53 1292.41 1011.84 1292.72 1012.23 1292.95C1012.62 1293.18 1013.05 1293.3 1013.52 1293.3C1014.07 1293.3 1014.54 1293.14 1014.92 1292.84C1015.3 1292.52 1015.54 1292.12 1015.64 1291.64H1017.36C1017.27 1292.27 1017.05 1292.83 1016.7 1293.33C1016.35 1293.83 1015.9 1294.22 1015.35 1294.51C1014.8 1294.8 1014.2 1294.95 1013.52 1294.95C1012.75 1294.95 1012.04 1294.76 1011.4 1294.38C1010.76 1294 1010.25 1293.49 1009.87 1292.85C1009.49 1292.21 1009.3 1291.5 1009.3 1290.73ZM1013.45 1298.23C1012.42 1298.23 1011.45 1298.03 1010.54 1297.64C1009.64 1297.26 1008.84 1296.72 1008.15 1296.03C1007.46 1295.34 1006.92 1294.54 1006.53 1293.64C1006.14 1292.73 1005.95 1291.76 1005.95 1290.73C1005.96 1289.69 1006.15 1288.72 1006.54 1287.82C1006.93 1286.91 1007.47 1286.12 1008.16 1285.43C1008.85 1284.74 1009.64 1284.2 1010.55 1283.81C1011.45 1283.42 1012.42 1283.23 1013.45 1283.23C1014.49 1283.23 1015.46 1283.42 1016.36 1283.81C1017.27 1284.2 1018.07 1284.74 1018.75 1285.43C1019.44 1286.12 1019.97 1286.91 1020.36 1287.82C1020.75 1288.72 1020.95 1289.69 1020.95 1290.73C1020.96 1291.76 1020.77 1292.73 1020.38 1293.64C1019.99 1294.54 1019.45 1295.34 1018.76 1296.03C1018.08 1296.72 1017.28 1297.26 1016.37 1297.64C1015.46 1298.03 1014.49 1298.23 1013.45 1298.23ZM1013.45 1296.58C1014.26 1296.58 1015.02 1296.43 1015.73 1296.12C1016.44 1295.82 1017.07 1295.4 1017.6 1294.87C1018.14 1294.33 1018.55 1293.71 1018.86 1293.01C1019.16 1292.3 1019.31 1291.54 1019.3 1290.73C1019.3 1289.92 1019.15 1289.16 1018.84 1288.45C1018.54 1287.74 1018.12 1287.12 1017.59 1286.59C1017.05 1286.05 1016.43 1285.63 1015.73 1285.33C1015.02 1285.03 1014.26 1284.88 1013.45 1284.88C1012.65 1284.88 1011.89 1285.03 1011.19 1285.33C1010.48 1285.63 1009.86 1286.05 1009.33 1286.59C1008.79 1287.13 1008.37 1287.75 1008.06 1288.46C1007.76 1289.17 1007.6 1289.92 1007.6 1290.73C1007.6 1291.53 1007.74 1292.29 1008.05 1293C1008.35 1293.71 1008.77 1294.33 1009.3 1294.86C1009.84 1295.4 1010.47 1295.82 1011.17 1296.12C1011.88 1296.43 1012.64 1296.58 1013.45 1296.58ZM1029.74 1298V1296.72L1034.54 1291.47C1035.1 1290.85 1035.56 1290.32 1035.93 1289.86C1036.29 1289.4 1036.56 1288.97 1036.74 1288.57C1036.92 1288.16 1037.01 1287.73 1037.01 1287.29C1037.01 1286.78 1036.89 1286.34 1036.64 1285.96C1036.4 1285.59 1036.07 1285.3 1035.65 1285.1C1035.22 1284.89 1034.75 1284.79 1034.22 1284.79C1033.67 1284.79 1033.18 1284.91 1032.76 1285.14C1032.35 1285.37 1032.03 1285.68 1031.8 1286.1C1031.58 1286.51 1031.47 1286.99 1031.47 1287.55H1029.79C1029.79 1286.69 1029.99 1285.95 1030.38 1285.3C1030.78 1284.66 1031.31 1284.16 1031.99 1283.8C1032.67 1283.44 1033.43 1283.26 1034.28 1283.26C1035.13 1283.26 1035.89 1283.44 1036.55 1283.8C1037.21 1284.16 1037.72 1284.64 1038.1 1285.25C1038.47 1285.86 1038.66 1286.54 1038.66 1287.29C1038.66 1287.82 1038.56 1288.35 1038.37 1288.86C1038.18 1289.37 1037.84 1289.93 1037.37 1290.56C1036.9 1291.18 1036.25 1291.93 1035.42 1292.83L1032.15 1296.32V1296.44H1038.91V1298H1029.74ZM1046.59 1298.2C1045.52 1298.2 1044.61 1297.91 1043.86 1297.33C1043.1 1296.74 1042.53 1295.89 1042.13 1294.78C1041.73 1293.66 1041.53 1292.31 1041.53 1290.73C1041.53 1289.16 1041.73 1287.81 1042.13 1286.7C1042.53 1285.58 1043.11 1284.73 1043.86 1284.14C1044.62 1283.55 1045.53 1283.26 1046.59 1283.26C1047.65 1283.26 1048.56 1283.55 1049.31 1284.14C1050.07 1284.73 1050.65 1285.58 1051.04 1286.7C1051.45 1287.81 1051.65 1289.16 1051.65 1290.73C1051.65 1292.31 1051.45 1293.66 1051.05 1294.78C1050.65 1295.89 1050.08 1296.74 1049.32 1297.33C1048.57 1297.91 1047.66 1298.2 1046.59 1298.2ZM1046.59 1296.64C1047.65 1296.64 1048.47 1296.12 1049.06 1295.1C1049.65 1294.08 1049.94 1292.62 1049.94 1290.73C1049.94 1289.47 1049.81 1288.4 1049.54 1287.51C1049.27 1286.62 1048.89 1285.95 1048.39 1285.49C1047.89 1285.02 1047.29 1284.79 1046.59 1284.79C1045.54 1284.79 1044.72 1285.31 1044.13 1286.35C1043.53 1287.38 1043.24 1288.84 1043.24 1290.73C1043.24 1291.99 1043.37 1293.06 1043.64 1293.94C1043.9 1294.82 1044.28 1295.49 1044.78 1295.95C1045.28 1296.41 1045.88 1296.64 1046.59 1296.64ZM1054.35 1298V1296.72L1059.15 1291.47C1059.71 1290.85 1060.17 1290.32 1060.54 1289.86C1060.9 1289.4 1061.17 1288.97 1061.35 1288.57C1061.53 1288.16 1061.62 1287.73 1061.62 1287.29C1061.62 1286.78 1061.5 1286.34 1061.25 1285.96C1061.01 1285.59 1060.68 1285.3 1060.25 1285.1C1059.83 1284.89 1059.36 1284.79 1058.83 1284.79C1058.28 1284.79 1057.79 1284.91 1057.37 1285.14C1056.96 1285.37 1056.64 1285.68 1056.41 1286.1C1056.19 1286.51 1056.08 1286.99 1056.08 1287.55H1054.4C1054.4 1286.69 1054.6 1285.95 1054.99 1285.3C1055.38 1284.66 1055.92 1284.16 1056.6 1283.8C1057.28 1283.44 1058.04 1283.26 1058.89 1283.26C1059.74 1283.26 1060.5 1283.44 1061.16 1283.8C1061.81 1284.16 1062.33 1284.64 1062.7 1285.25C1063.08 1285.86 1063.27 1286.54 1063.27 1287.29C1063.27 1287.82 1063.17 1288.35 1062.97 1288.86C1062.79 1289.37 1062.45 1289.93 1061.98 1290.56C1061.51 1291.18 1060.86 1291.93 1060.03 1292.83L1056.76 1296.32V1296.44H1063.52V1298H1054.35ZM1071 1298.2C1070.17 1298.2 1069.42 1298.03 1068.75 1297.7C1068.08 1297.37 1067.55 1296.92 1067.14 1296.34C1066.74 1295.76 1066.52 1295.1 1066.48 1294.36H1068.19C1068.25 1295.02 1068.55 1295.57 1069.08 1296C1069.62 1296.42 1070.26 1296.64 1071 1296.64C1071.6 1296.64 1072.13 1296.5 1072.59 1296.22C1073.06 1295.94 1073.43 1295.55 1073.69 1295.07C1073.96 1294.57 1074.1 1294.02 1074.1 1293.4C1074.1 1292.76 1073.96 1292.2 1073.68 1291.7C1073.4 1291.2 1073.02 1290.8 1072.54 1290.51C1072.06 1290.23 1071.51 1290.08 1070.89 1290.07C1070.44 1290.07 1069.98 1290.14 1069.52 1290.28C1069.05 1290.42 1068.66 1290.59 1068.36 1290.81L1066.71 1290.61L1067.59 1283.45H1075.15V1285.02H1069.07L1068.56 1289.31H1068.64C1068.94 1289.07 1069.31 1288.87 1069.76 1288.72C1070.21 1288.56 1070.68 1288.48 1071.17 1288.48C1072.06 1288.48 1072.85 1288.7 1073.55 1289.12C1074.25 1289.54 1074.8 1290.12 1075.2 1290.86C1075.6 1291.59 1075.8 1292.43 1075.8 1293.37C1075.8 1294.3 1075.59 1295.13 1075.18 1295.86C1074.76 1296.58 1074.2 1297.15 1073.47 1297.57C1072.75 1297.99 1071.92 1298.2 1071 1298.2ZM1085.1 1298H1083.25L1088.59 1283.45H1090.41L1095.75 1298H1093.91L1089.56 1285.76H1089.45L1085.1 1298ZM1085.78 1292.32H1093.23V1293.88H1085.78V1292.32ZM1099.47 1291.44V1298H1097.79V1287.09H1099.41V1288.8H1099.55C1099.81 1288.24 1100.2 1287.8 1100.72 1287.46C1101.24 1287.12 1101.91 1286.95 1102.74 1286.95C1103.47 1286.95 1104.12 1287.1 1104.67 1287.4C1105.23 1287.7 1105.66 1288.16 1105.97 1288.77C1106.27 1289.37 1106.43 1290.14 1106.43 1291.07V1298H1104.75V1291.18C1104.75 1290.32 1104.53 1289.66 1104.08 1289.18C1103.64 1288.7 1103.03 1288.45 1102.25 1288.45C1101.72 1288.45 1101.24 1288.57 1100.82 1288.8C1100.4 1289.03 1100.07 1289.37 1099.83 1289.82C1099.59 1290.26 1099.47 1290.8 1099.47 1291.44ZM1113.92 1298.23C1112.94 1298.23 1112.07 1297.99 1111.33 1297.52C1110.59 1297.06 1110.01 1296.4 1109.6 1295.56C1109.19 1294.71 1108.98 1293.73 1108.98 1292.6C1108.98 1291.47 1109.19 1290.47 1109.6 1289.63C1110.01 1288.78 1110.59 1288.12 1111.33 1287.65C1112.07 1287.18 1112.94 1286.95 1113.92 1286.95C1114.91 1286.95 1115.77 1287.18 1116.51 1287.65C1117.25 1288.12 1117.83 1288.78 1118.24 1289.63C1118.66 1290.47 1118.87 1291.47 1118.87 1292.6C1118.87 1293.73 1118.66 1294.71 1118.24 1295.56C1117.83 1296.4 1117.25 1297.06 1116.51 1297.52C1115.77 1297.99 1114.91 1298.23 1113.92 1298.23ZM1113.92 1296.72C1114.67 1296.72 1115.29 1296.53 1115.77 1296.15C1116.25 1295.76 1116.61 1295.26 1116.84 1294.63C1117.07 1294.01 1117.19 1293.33 1117.19 1292.6C1117.19 1291.87 1117.07 1291.19 1116.84 1290.56C1116.61 1289.93 1116.25 1289.43 1115.77 1289.04C1115.29 1288.65 1114.67 1288.45 1113.92 1288.45C1113.17 1288.45 1112.56 1288.65 1112.08 1289.04C1111.59 1289.43 1111.24 1289.93 1111 1290.56C1110.77 1291.19 1110.66 1291.87 1110.66 1292.6C1110.66 1293.33 1110.77 1294.01 1111 1294.63C1111.24 1295.26 1111.59 1295.76 1112.08 1296.15C1112.56 1296.53 1113.17 1296.72 1113.92 1296.72ZM1126.17 1287.09V1288.51H1120.52V1287.09H1126.17ZM1122.16 1284.48H1123.84V1294.88C1123.84 1295.35 1123.91 1295.7 1124.05 1295.94C1124.19 1296.17 1124.37 1296.33 1124.59 1296.41C1124.81 1296.48 1125.04 1296.52 1125.29 1296.52C1125.47 1296.52 1125.62 1296.51 1125.74 1296.49C1125.86 1296.47 1125.96 1296.45 1126.03 1296.44L1126.37 1297.94C1126.25 1297.99 1126.1 1298.03 1125.89 1298.07C1125.69 1298.12 1125.43 1298.14 1125.12 1298.14C1124.64 1298.14 1124.18 1298.04 1123.73 1297.84C1123.28 1297.63 1122.9 1297.32 1122.6 1296.91C1122.31 1296.49 1122.16 1295.96 1122.16 1295.33V1284.48ZM1133 1298.23C1132.02 1298.23 1131.16 1297.99 1130.41 1297.52C1129.67 1297.06 1129.1 1296.4 1128.68 1295.56C1128.27 1294.71 1128.06 1293.73 1128.06 1292.6C1128.06 1291.47 1128.27 1290.47 1128.68 1289.63C1129.1 1288.78 1129.67 1288.12 1130.41 1287.65C1131.16 1287.18 1132.02 1286.95 1133 1286.95C1133.99 1286.95 1134.85 1287.18 1135.59 1287.65C1136.33 1288.12 1136.91 1288.78 1137.32 1289.63C1137.74 1290.47 1137.95 1291.47 1137.95 1292.6C1137.95 1293.73 1137.74 1294.71 1137.32 1295.56C1136.91 1296.4 1136.33 1297.06 1135.59 1297.52C1134.85 1297.99 1133.99 1298.23 1133 1298.23ZM1133 1296.72C1133.75 1296.72 1134.37 1296.53 1134.85 1296.15C1135.33 1295.76 1135.69 1295.26 1135.92 1294.63C1136.16 1294.01 1136.27 1293.33 1136.27 1292.6C1136.27 1291.87 1136.16 1291.19 1135.92 1290.56C1135.69 1289.93 1135.33 1289.43 1134.85 1289.04C1134.37 1288.65 1133.75 1288.45 1133 1288.45C1132.26 1288.45 1131.64 1288.65 1131.16 1289.04C1130.68 1289.43 1130.32 1289.93 1130.09 1290.56C1129.85 1291.19 1129.74 1291.87 1129.74 1292.6C1129.74 1293.33 1129.85 1294.01 1130.09 1294.63C1130.32 1295.26 1130.68 1295.76 1131.16 1296.15C1131.64 1296.53 1132.26 1296.72 1133 1296.72ZM1141.73 1298.11C1141.38 1298.11 1141.08 1297.99 1140.83 1297.74C1140.58 1297.49 1140.45 1297.19 1140.45 1296.84C1140.45 1296.48 1140.58 1296.18 1140.83 1295.93C1141.08 1295.68 1141.38 1295.56 1141.73 1295.56C1142.08 1295.56 1142.38 1295.68 1142.63 1295.93C1142.88 1296.18 1143.01 1296.48 1143.01 1296.84C1143.01 1297.07 1142.95 1297.28 1142.83 1297.47C1142.72 1297.67 1142.56 1297.82 1142.37 1297.94C1142.18 1298.06 1141.97 1298.11 1141.73 1298.11ZM1152.46 1298H1150.62L1155.96 1283.45H1157.78L1163.12 1298H1161.27L1156.92 1285.76H1156.81L1152.46 1298ZM1153.15 1292.32H1160.59V1293.88H1153.15V1292.32ZM1166.83 1283.45V1298H1165.16V1283.45H1166.83ZM1171.58 1283.45V1298H1169.9V1283.45H1171.58ZM1180.27 1298V1287.09H1181.89V1288.74H1182.01C1182.2 1288.2 1182.56 1287.76 1183.08 1287.42C1183.61 1287.09 1184.19 1286.92 1184.85 1286.92C1184.97 1286.92 1185.12 1286.92 1185.31 1286.93C1185.49 1286.93 1185.63 1286.94 1185.73 1286.95V1288.65C1185.67 1288.64 1185.54 1288.62 1185.34 1288.59C1185.14 1288.56 1184.93 1288.54 1184.7 1288.54C1184.17 1288.54 1183.7 1288.65 1183.28 1288.87C1182.87 1289.09 1182.55 1289.39 1182.3 1289.78C1182.07 1290.17 1181.95 1290.6 1181.95 1291.1V1298H1180.27ZM1187.71 1298V1287.09H1189.39V1298H1187.71ZM1188.57 1285.27C1188.24 1285.27 1187.96 1285.16 1187.72 1284.94C1187.49 1284.72 1187.37 1284.45 1187.37 1284.14C1187.37 1283.82 1187.49 1283.56 1187.72 1283.33C1187.96 1283.11 1188.24 1283 1188.57 1283C1188.89 1283 1189.17 1283.11 1189.4 1283.33C1189.64 1283.56 1189.76 1283.82 1189.76 1284.14C1189.76 1284.45 1189.64 1284.72 1189.4 1284.94C1189.17 1285.16 1188.89 1285.27 1188.57 1285.27ZM1196.86 1302.32C1196.05 1302.32 1195.36 1302.21 1194.78 1302.01C1194.19 1301.8 1193.71 1301.53 1193.32 1301.2C1192.94 1300.86 1192.63 1300.51 1192.4 1300.13L1193.74 1299.19C1193.89 1299.39 1194.08 1299.62 1194.31 1299.88C1194.55 1300.14 1194.86 1300.36 1195.27 1300.55C1195.67 1300.74 1196.21 1300.84 1196.86 1300.84C1197.74 1300.84 1198.47 1300.63 1199.04 1300.2C1199.62 1299.78 1199.9 1299.11 1199.9 1298.2V1295.98H1199.76C1199.64 1296.18 1199.46 1296.43 1199.24 1296.72C1199.01 1297.01 1198.69 1297.27 1198.27 1297.5C1197.85 1297.72 1197.29 1297.83 1196.58 1297.83C1195.7 1297.83 1194.91 1297.62 1194.21 1297.2C1193.51 1296.79 1192.96 1296.18 1192.55 1295.39C1192.15 1294.59 1191.95 1293.62 1191.95 1292.49C1191.95 1291.37 1192.15 1290.4 1192.54 1289.57C1192.93 1288.74 1193.48 1288.09 1194.18 1287.64C1194.88 1287.18 1195.69 1286.95 1196.61 1286.95C1197.32 1286.95 1197.88 1287.07 1198.3 1287.3C1198.72 1287.54 1199.04 1287.8 1199.26 1288.1C1199.49 1288.39 1199.67 1288.63 1199.79 1288.82H1199.96V1287.09H1201.58V1298.31C1201.58 1299.25 1201.37 1300.01 1200.94 1300.6C1200.52 1301.19 1199.95 1301.62 1199.24 1301.9C1198.53 1302.18 1197.73 1302.32 1196.86 1302.32ZM1196.81 1296.32C1197.48 1296.32 1198.05 1296.17 1198.51 1295.86C1198.98 1295.55 1199.33 1295.11 1199.57 1294.53C1199.81 1293.96 1199.93 1293.27 1199.93 1292.46C1199.93 1291.67 1199.81 1290.98 1199.58 1290.38C1199.34 1289.78 1198.99 1289.31 1198.53 1288.97C1198.06 1288.62 1197.49 1288.45 1196.81 1288.45C1196.1 1288.45 1195.5 1288.63 1195.03 1288.99C1194.56 1289.35 1194.21 1289.84 1193.97 1290.44C1193.74 1291.05 1193.62 1291.72 1193.62 1292.46C1193.62 1293.22 1193.74 1293.89 1193.98 1294.47C1194.22 1295.05 1194.58 1295.5 1195.05 1295.83C1195.52 1296.16 1196.11 1296.32 1196.81 1296.32ZM1206.32 1291.44V1298H1204.65V1283.45H1206.32V1288.8H1206.47C1206.72 1288.23 1207.1 1287.78 1207.62 1287.45C1208.13 1287.12 1208.82 1286.95 1209.68 1286.95C1210.42 1286.95 1211.07 1287.1 1211.63 1287.4C1212.19 1287.69 1212.62 1288.14 1212.93 1288.75C1213.24 1289.36 1213.4 1290.13 1213.4 1291.07V1298H1211.72V1291.18C1211.72 1290.32 1211.5 1289.65 1211.05 1289.17C1210.6 1288.69 1209.98 1288.45 1209.19 1288.45C1208.64 1288.45 1208.15 1288.57 1207.72 1288.8C1207.28 1289.03 1206.94 1289.37 1206.69 1289.82C1206.45 1290.26 1206.32 1290.8 1206.32 1291.44ZM1221.21 1287.09V1288.51H1215.55V1287.09H1221.21ZM1217.2 1284.48H1218.88V1294.88C1218.88 1295.35 1218.95 1295.7 1219.08 1295.94C1219.23 1296.17 1219.41 1296.33 1219.62 1296.41C1219.85 1296.48 1220.08 1296.52 1220.33 1296.52C1220.51 1296.52 1220.66 1296.51 1220.78 1296.49C1220.9 1296.47 1221 1296.45 1221.07 1296.44L1221.41 1297.94C1221.29 1297.99 1221.13 1298.03 1220.93 1298.07C1220.73 1298.12 1220.47 1298.14 1220.16 1298.14C1219.68 1298.14 1219.22 1298.04 1218.76 1297.84C1218.32 1297.63 1217.94 1297.32 1217.64 1296.91C1217.35 1296.49 1217.2 1295.96 1217.2 1295.33V1284.48ZM1231.26 1289.53L1229.76 1289.96C1229.66 1289.71 1229.52 1289.47 1229.34 1289.23C1229.16 1288.99 1228.91 1288.79 1228.6 1288.63C1228.29 1288.48 1227.89 1288.4 1227.4 1288.4C1226.73 1288.4 1226.17 1288.55 1225.73 1288.86C1225.29 1289.16 1225.07 1289.55 1225.07 1290.02C1225.07 1290.43 1225.22 1290.76 1225.52 1291C1225.83 1291.25 1226.3 1291.45 1226.94 1291.61L1228.56 1292.01C1229.54 1292.24 1230.26 1292.6 1230.74 1293.09C1231.22 1293.58 1231.46 1294.2 1231.46 1294.96C1231.46 1295.59 1231.28 1296.14 1230.92 1296.64C1230.57 1297.13 1230.07 1297.52 1229.43 1297.8C1228.79 1298.09 1228.05 1298.23 1227.2 1298.23C1226.09 1298.23 1225.17 1297.99 1224.44 1297.5C1223.71 1297.02 1223.25 1296.31 1223.05 1295.39L1224.64 1294.99C1224.79 1295.58 1225.08 1296.02 1225.5 1296.31C1225.93 1296.6 1226.48 1296.75 1227.17 1296.75C1227.95 1296.75 1228.57 1296.58 1229.03 1296.25C1229.5 1295.92 1229.73 1295.51 1229.73 1295.05C1229.73 1294.67 1229.59 1294.35 1229.33 1294.09C1229.06 1293.83 1228.66 1293.64 1228.11 1293.51L1226.29 1293.09C1225.29 1292.85 1224.56 1292.48 1224.09 1291.98C1223.62 1291.48 1223.39 1290.86 1223.39 1290.1C1223.39 1289.49 1223.56 1288.94 1223.91 1288.47C1224.26 1288 1224.74 1287.62 1225.34 1287.35C1225.94 1287.08 1226.63 1286.95 1227.4 1286.95C1228.48 1286.95 1229.32 1287.19 1229.94 1287.66C1230.56 1288.13 1231 1288.76 1231.26 1289.53ZM1239.61 1298V1287.09H1241.23V1288.74H1241.34C1241.54 1288.2 1241.9 1287.76 1242.42 1287.42C1242.94 1287.09 1243.53 1286.92 1244.18 1286.92C1244.31 1286.92 1244.46 1286.92 1244.64 1286.93C1244.83 1286.93 1244.97 1286.94 1245.06 1286.95V1288.65C1245.01 1288.64 1244.88 1288.62 1244.67 1288.59C1244.47 1288.56 1244.26 1288.54 1244.04 1288.54C1243.51 1288.54 1243.04 1288.65 1242.62 1288.87C1242.21 1289.09 1241.88 1289.39 1241.64 1289.78C1241.4 1290.17 1241.28 1290.6 1241.28 1291.1V1298H1239.61ZM1251.29 1298.23C1250.24 1298.23 1249.33 1298 1248.57 1297.53C1247.81 1297.06 1247.23 1296.41 1246.82 1295.57C1246.41 1294.73 1246.21 1293.75 1246.21 1292.63C1246.21 1291.51 1246.41 1290.53 1246.82 1289.68C1247.23 1288.82 1247.8 1288.15 1248.54 1287.67C1249.27 1287.19 1250.14 1286.95 1251.12 1286.95C1251.69 1286.95 1252.25 1287.04 1252.8 1287.23C1253.36 1287.42 1253.86 1287.73 1254.32 1288.16C1254.77 1288.58 1255.13 1289.14 1255.4 1289.83C1255.67 1290.53 1255.81 1291.39 1255.81 1292.4V1293.11H1247.4V1291.66H1254.1C1254.1 1291.05 1253.98 1290.5 1253.73 1290.02C1253.49 1289.53 1253.15 1289.15 1252.7 1288.87C1252.25 1288.59 1251.73 1288.45 1251.12 1288.45C1250.45 1288.45 1249.88 1288.62 1249.39 1288.95C1248.91 1289.28 1248.53 1289.7 1248.27 1290.23C1248.01 1290.76 1247.88 1291.32 1247.88 1291.92V1292.89C1247.88 1293.71 1248.02 1294.41 1248.31 1294.98C1248.6 1295.55 1249 1295.98 1249.51 1296.28C1250.02 1296.57 1250.61 1296.72 1251.29 1296.72C1251.73 1296.72 1252.13 1296.66 1252.48 1296.54C1252.84 1296.41 1253.15 1296.22 1253.42 1295.97C1253.68 1295.71 1253.88 1295.4 1254.02 1295.02L1255.64 1295.47C1255.47 1296.02 1255.18 1296.5 1254.78 1296.92C1254.38 1297.33 1253.88 1297.65 1253.29 1297.89C1252.7 1298.11 1252.03 1298.23 1251.29 1298.23ZM1266.09 1289.53L1264.58 1289.96C1264.49 1289.71 1264.35 1289.47 1264.16 1289.23C1263.98 1288.99 1263.73 1288.79 1263.42 1288.63C1263.11 1288.48 1262.71 1288.4 1262.22 1288.4C1261.55 1288.4 1261 1288.55 1260.55 1288.86C1260.11 1289.16 1259.89 1289.55 1259.89 1290.02C1259.89 1290.43 1260.04 1290.76 1260.35 1291C1260.65 1291.25 1261.12 1291.45 1261.77 1291.61L1263.39 1292.01C1264.36 1292.24 1265.09 1292.6 1265.57 1293.09C1266.05 1293.58 1266.28 1294.2 1266.28 1294.96C1266.28 1295.59 1266.1 1296.14 1265.74 1296.64C1265.39 1297.13 1264.89 1297.52 1264.25 1297.8C1263.61 1298.09 1262.87 1298.23 1262.02 1298.23C1260.91 1298.23 1259.99 1297.99 1259.26 1297.5C1258.53 1297.02 1258.07 1296.31 1257.88 1295.39L1259.47 1294.99C1259.62 1295.58 1259.9 1296.02 1260.33 1296.31C1260.75 1296.6 1261.31 1296.75 1261.99 1296.75C1262.78 1296.75 1263.4 1296.58 1263.86 1296.25C1264.32 1295.92 1264.55 1295.51 1264.55 1295.05C1264.55 1294.67 1264.42 1294.35 1264.15 1294.09C1263.89 1293.83 1263.48 1293.64 1262.93 1293.51L1261.11 1293.09C1260.11 1292.85 1259.38 1292.48 1258.91 1291.98C1258.45 1291.48 1258.22 1290.86 1258.22 1290.1C1258.22 1289.49 1258.39 1288.94 1258.73 1288.47C1259.09 1288 1259.56 1287.62 1260.16 1287.35C1260.77 1287.08 1261.45 1286.95 1262.22 1286.95C1263.3 1286.95 1264.15 1287.19 1264.76 1287.66C1265.38 1288.13 1265.83 1288.76 1266.09 1289.53ZM1273.38 1298.23C1272.33 1298.23 1271.42 1298 1270.66 1297.53C1269.9 1297.06 1269.32 1296.41 1268.91 1295.57C1268.5 1294.73 1268.3 1293.75 1268.3 1292.63C1268.3 1291.51 1268.5 1290.53 1268.91 1289.68C1269.32 1288.82 1269.89 1288.15 1270.63 1287.67C1271.36 1287.19 1272.23 1286.95 1273.21 1286.95C1273.78 1286.95 1274.34 1287.04 1274.89 1287.23C1275.45 1287.42 1275.95 1287.73 1276.41 1288.16C1276.86 1288.58 1277.22 1289.14 1277.49 1289.83C1277.76 1290.53 1277.9 1291.39 1277.9 1292.4V1293.11H1269.49V1291.66H1276.19C1276.19 1291.05 1276.07 1290.5 1275.82 1290.02C1275.58 1289.53 1275.24 1289.15 1274.79 1288.87C1274.34 1288.59 1273.82 1288.45 1273.21 1288.45C1272.54 1288.45 1271.97 1288.62 1271.48 1288.95C1271 1289.28 1270.62 1289.7 1270.36 1290.23C1270.1 1290.76 1269.97 1291.32 1269.97 1291.92V1292.89C1269.97 1293.71 1270.11 1294.41 1270.4 1294.98C1270.69 1295.55 1271.09 1295.98 1271.6 1296.28C1272.11 1296.57 1272.7 1296.72 1273.38 1296.72C1273.82 1296.72 1274.22 1296.66 1274.57 1296.54C1274.93 1296.41 1275.24 1296.22 1275.5 1295.97C1275.77 1295.71 1275.97 1295.4 1276.11 1295.02L1277.73 1295.47C1277.56 1296.02 1277.27 1296.5 1276.87 1296.92C1276.47 1297.33 1275.97 1297.65 1275.38 1297.89C1274.79 1298.11 1274.12 1298.23 1273.38 1298.23ZM1280.45 1298V1287.09H1282.07V1288.74H1282.18C1282.38 1288.2 1282.74 1287.76 1283.26 1287.42C1283.78 1287.09 1284.37 1286.92 1285.02 1286.92C1285.15 1286.92 1285.3 1286.92 1285.48 1286.93C1285.67 1286.93 1285.81 1286.94 1285.9 1286.95V1288.65C1285.85 1288.64 1285.72 1288.62 1285.51 1288.59C1285.31 1288.56 1285.1 1288.54 1284.88 1288.54C1284.35 1288.54 1283.88 1288.65 1283.46 1288.87C1283.05 1289.09 1282.72 1289.39 1282.48 1289.78C1282.24 1290.17 1282.12 1290.6 1282.12 1291.1V1298H1280.45ZM1297.14 1287.09L1293.11 1298H1291.4L1287.37 1287.09H1289.19L1292.2 1295.78H1292.31L1295.32 1287.09H1297.14ZM1303.54 1298.23C1302.49 1298.23 1301.58 1298 1300.82 1297.53C1300.06 1297.06 1299.48 1296.41 1299.06 1295.57C1298.66 1294.73 1298.45 1293.75 1298.45 1292.63C1298.45 1291.51 1298.66 1290.53 1299.06 1289.68C1299.48 1288.82 1300.05 1288.15 1300.78 1287.67C1301.52 1287.19 1302.38 1286.95 1303.37 1286.95C1303.94 1286.95 1304.5 1287.04 1305.05 1287.23C1305.6 1287.42 1306.11 1287.73 1306.56 1288.16C1307.02 1288.58 1307.38 1289.14 1307.65 1289.83C1307.92 1290.53 1308.05 1291.39 1308.05 1292.4V1293.11H1299.65V1291.66H1306.35C1306.35 1291.05 1306.23 1290.5 1305.98 1290.02C1305.74 1289.53 1305.39 1289.15 1304.94 1288.87C1304.5 1288.59 1303.97 1288.45 1303.37 1288.45C1302.7 1288.45 1302.12 1288.62 1301.63 1288.95C1301.15 1289.28 1300.78 1289.7 1300.52 1290.23C1300.26 1290.76 1300.13 1291.32 1300.13 1291.92V1292.89C1300.13 1293.71 1300.27 1294.41 1300.55 1294.98C1300.84 1295.55 1301.24 1295.98 1301.75 1296.28C1302.27 1296.57 1302.86 1296.72 1303.54 1296.72C1303.98 1296.72 1304.38 1296.66 1304.73 1296.54C1305.09 1296.41 1305.4 1296.22 1305.66 1295.97C1305.92 1295.71 1306.12 1295.4 1306.26 1295.02L1307.88 1295.47C1307.71 1296.02 1307.43 1296.5 1307.02 1296.92C1306.62 1297.33 1306.13 1297.65 1305.53 1297.89C1304.94 1298.11 1304.28 1298.23 1303.54 1298.23ZM1314.72 1298.23C1313.81 1298.23 1313.01 1298 1312.32 1297.54C1311.62 1297.07 1311.08 1296.42 1310.68 1295.58C1310.29 1294.73 1310.09 1293.73 1310.09 1292.57C1310.09 1291.43 1310.29 1290.43 1310.68 1289.59C1311.08 1288.75 1311.62 1288.1 1312.32 1287.64C1313.02 1287.18 1313.83 1286.95 1314.75 1286.95C1315.46 1286.95 1316.02 1287.07 1316.44 1287.3C1316.85 1287.54 1317.17 1287.8 1317.39 1288.1C1317.61 1288.39 1317.78 1288.63 1317.91 1288.82H1318.05V1283.45H1319.72V1298H1318.1V1296.32H1317.91C1317.78 1296.52 1317.61 1296.77 1317.38 1297.08C1317.15 1297.37 1316.83 1297.64 1316.41 1297.88C1315.99 1298.11 1315.42 1298.23 1314.72 1298.23ZM1314.95 1296.72C1315.62 1296.72 1316.19 1296.55 1316.66 1296.2C1317.12 1295.84 1317.47 1295.35 1317.71 1294.73C1317.96 1294.1 1318.08 1293.37 1318.08 1292.55C1318.08 1291.73 1317.96 1291.02 1317.72 1290.41C1317.48 1289.79 1317.13 1289.31 1316.67 1288.97C1316.21 1288.63 1315.63 1288.45 1314.95 1288.45C1314.24 1288.45 1313.65 1288.64 1313.18 1289C1312.71 1289.36 1312.35 1289.85 1312.12 1290.47C1311.89 1291.09 1311.77 1291.78 1311.77 1292.55C1311.77 1293.32 1311.89 1294.03 1312.12 1294.66C1312.37 1295.29 1312.72 1295.79 1313.19 1296.17C1313.66 1296.54 1314.25 1296.72 1314.95 1296.72ZM1324.25 1298.11C1323.9 1298.11 1323.6 1297.99 1323.35 1297.74C1323.09 1297.49 1322.97 1297.19 1322.97 1296.84C1322.97 1296.48 1323.09 1296.18 1323.35 1295.93C1323.6 1295.68 1323.9 1295.56 1324.25 1295.56C1324.6 1295.56 1324.9 1295.68 1325.15 1295.93C1325.4 1296.18 1325.53 1296.48 1325.53 1296.84C1325.53 1297.07 1325.47 1297.28 1325.35 1297.47C1325.24 1297.67 1325.08 1297.82 1324.89 1297.94C1324.7 1298.06 1324.48 1298.11 1324.25 1298.11Z" fill="#F5F3FF"/>
<g clip-path="url(#clip2_145_1034)">
<path d="M927 1065.83V1085.18C926.615 1087.69 925.763 1090.07 923.931 1091.9C922.066 1093.76 919.715 1094.55 917.178 1095H897.841C897.717 1094.98 897.594 1094.95 897.469 1094.93C896.414 1094.83 895.384 1094.59 894.429 1094.14C890.3 1092.19 888.093 1088.92 888.038 1084.35C887.967 1078.45 888.018 1072.55 888.022 1066.65C888.023 1064.8 888.424 1063.04 889.365 1061.44C891.472 1057.87 894.628 1056.04 898.773 1056.02C904.597 1055.99 910.421 1056 916.245 1056.02C916.977 1056.02 917.727 1056.06 918.437 1056.22C922.735 1057.18 925.49 1059.8 926.679 1064.04C926.842 1064.62 926.896 1065.24 927 1065.83V1065.83ZM890.306 1075.49C890.306 1078.4 890.295 1081.32 890.314 1084.24C890.318 1084.88 890.357 1085.54 890.499 1086.17C891.39 1090.1 894.665 1092.71 898.7 1092.71C904.573 1092.72 910.448 1092.72 916.321 1092.71C916.963 1092.7 917.621 1092.65 918.242 1092.5C922.203 1091.54 924.714 1088.32 924.716 1084.24C924.719 1078.42 924.723 1072.59 924.709 1066.77C924.707 1066.13 924.664 1065.47 924.523 1064.84C923.64 1060.94 920.385 1058.31 916.398 1058.3C910.473 1058.28 904.55 1058.29 898.625 1058.3C897.431 1058.3 896.271 1058.51 895.196 1059.03C891.997 1060.59 890.358 1063.18 890.313 1066.73C890.276 1069.65 890.306 1072.57 890.306 1075.48V1075.49Z" fill="#F0F0F0"/>
<path d="M907.524 1086.16C901.677 1086.18 896.869 1081.39 896.853 1075.52C896.836 1069.67 901.63 1064.86 907.496 1064.84C913.343 1064.83 918.151 1069.62 918.167 1075.49C918.184 1081.34 913.39 1086.15 907.524 1086.16ZM915.883 1075.52C915.896 1070.92 912.121 1067.13 907.515 1067.13C902.926 1067.13 899.169 1070.87 899.139 1075.47C899.108 1080.06 902.873 1083.86 907.488 1083.88C912.084 1083.9 915.87 1080.13 915.883 1075.52L915.883 1075.52Z" fill="#F0F0F0"/>
<path d="M918.424 1067.35C915.675 1067.36 914.278 1063.92 916.209 1061.99C918.138 1060.06 921.572 1061.46 921.574 1064.21C921.575 1065.92 920.139 1067.35 918.424 1067.35ZM919.282 1064.2C919.277 1063.75 918.877 1063.35 918.426 1063.35C917.663 1063.35 917.311 1064.28 917.832 1064.8C918.353 1065.32 919.289 1064.96 919.282 1064.2Z" fill="#F0F0F0"/>
</g>
<g clip-path="url(#clip3_145_1034)">
<path d="M946.019 1095C950.923 1089.21 956.058 1083.59 960.833 1077.7C955.896 1070.51 950.964 1063.32 946 1056.08C948.275 1055.91 950.613 1056.06 952.896 1056.06C954.127 1056.06 955.359 1056.03 956.59 1056.05C957.724 1056.07 958.12 1057.23 958.714 1058.09C961.517 1062.18 964.256 1066.33 967.146 1070.37C969.688 1067.41 972.226 1064.46 974.763 1061.5C976.033 1060.02 977.303 1058.54 978.571 1057.06C979.136 1056.4 979.394 1056.06 980.295 1056.06C981.13 1056.05 981.963 1056.06 982.797 1056.06C978.042 1061.59 973.343 1067.06 968.637 1072.54C971.121 1076.33 973.761 1080.02 976.323 1083.76C977.627 1085.66 978.932 1087.56 980.235 1089.46C981.49 1091.29 982.881 1093.08 984 1095H972.682C971.16 1092.39 969.241 1089.95 967.532 1087.46C965.818 1084.96 964.239 1082.24 962.315 1079.9C957.931 1084.87 953.667 1089.96 949.362 1095H946.019V1095ZM979.413 1092.56C979.293 1092.38 979.218 1092.26 979.138 1092.15C977.088 1089.21 975.037 1086.28 972.986 1083.34C967.318 1075.22 961.649 1067.11 955.992 1058.98C955.777 1058.68 955.559 1058.57 955.191 1058.57C953.787 1058.6 952.381 1058.58 950.977 1058.58C950.857 1058.58 950.739 1058.6 950.579 1058.6C950.667 1058.74 950.723 1058.84 950.786 1058.93C958.554 1070.06 966.324 1081.18 974.087 1092.31C974.227 1092.51 974.371 1092.59 974.614 1092.59C976.082 1092.57 977.55 1092.58 979.019 1092.58C979.128 1092.58 979.237 1092.57 979.414 1092.56H979.413Z" fill="#F0F0F0"/>
</g>
<path d="M499.875 205V161.364H509.1V179.368H527.829V161.364H537.034V205H527.829V186.974H509.1V205H499.875ZM553.802 205.618C551.714 205.618 549.853 205.256 548.22 204.531C546.586 203.793 545.294 202.706 544.342 201.271C543.404 199.822 542.936 198.018 542.936 195.859C542.936 194.041 543.27 192.514 543.937 191.278C544.605 190.043 545.514 189.048 546.664 188.295C547.815 187.543 549.122 186.974 550.585 186.591C552.062 186.207 553.61 185.938 555.23 185.781C557.133 185.582 558.667 185.398 559.832 185.227C560.997 185.043 561.842 184.773 562.368 184.418C562.893 184.062 563.156 183.537 563.156 182.841V182.713C563.156 181.364 562.73 180.32 561.877 179.581C561.039 178.842 559.846 178.473 558.298 178.473C556.664 178.473 555.365 178.835 554.399 179.56C553.433 180.27 552.794 181.165 552.481 182.244L544.086 181.562C544.512 179.574 545.35 177.855 546.6 176.406C547.85 174.943 549.463 173.821 551.437 173.04C553.426 172.244 555.727 171.847 558.341 171.847C560.159 171.847 561.899 172.06 563.561 172.486C565.237 172.912 566.721 173.572 568.014 174.467C569.321 175.362 570.35 176.513 571.103 177.919C571.856 179.311 572.233 180.98 572.233 182.926V205H563.625V200.462H563.369C562.843 201.484 562.14 202.386 561.26 203.168C560.379 203.935 559.321 204.538 558.085 204.979C556.849 205.405 555.422 205.618 553.802 205.618ZM556.402 199.354C557.737 199.354 558.916 199.091 559.939 198.565C560.961 198.026 561.764 197.301 562.346 196.392C562.929 195.483 563.22 194.453 563.22 193.303V189.83C562.936 190.014 562.545 190.185 562.048 190.341C561.565 190.483 561.018 190.618 560.407 190.746C559.797 190.859 559.186 190.966 558.575 191.065C557.964 191.151 557.41 191.229 556.913 191.3C555.848 191.456 554.917 191.705 554.122 192.045C553.326 192.386 552.708 192.848 552.268 193.43C551.828 193.999 551.608 194.709 551.608 195.561C551.608 196.797 552.055 197.741 552.95 198.395C553.859 199.034 555.01 199.354 556.402 199.354ZM606.505 181.605L598.195 182.116C598.053 181.406 597.748 180.767 597.279 180.199C596.81 179.616 596.192 179.155 595.425 178.814C594.672 178.459 593.77 178.281 592.719 178.281C591.313 178.281 590.127 178.58 589.161 179.176C588.195 179.759 587.712 180.54 587.712 181.52C587.712 182.301 588.025 182.962 588.65 183.501C589.275 184.041 590.347 184.474 591.867 184.801L597.79 185.994C600.972 186.648 603.344 187.699 604.907 189.148C606.469 190.597 607.25 192.5 607.25 194.858C607.25 197.003 606.618 198.885 605.354 200.504C604.104 202.124 602.385 203.388 600.198 204.297C598.025 205.192 595.517 205.639 592.676 205.639C588.344 205.639 584.892 204.737 582.321 202.933C579.765 201.115 578.266 198.643 577.826 195.518L586.753 195.05C587.023 196.371 587.676 197.379 588.713 198.075C589.75 198.757 591.078 199.098 592.698 199.098C594.289 199.098 595.567 198.793 596.533 198.182C597.513 197.557 598.01 196.754 598.025 195.774C598.01 194.95 597.662 194.276 596.98 193.75C596.299 193.21 595.248 192.798 593.827 192.514L588.159 191.385C584.963 190.746 582.584 189.638 581.022 188.061C579.473 186.484 578.699 184.474 578.699 182.031C578.699 179.929 579.267 178.118 580.404 176.598C581.554 175.078 583.167 173.906 585.24 173.082C587.328 172.259 589.772 171.847 592.57 171.847C596.703 171.847 599.956 172.72 602.328 174.467C604.715 176.214 606.107 178.594 606.505 181.605ZM612.966 205V172.273H622.043V205H612.966ZM617.526 168.054C616.176 168.054 615.018 167.607 614.053 166.712C613.101 165.803 612.625 164.716 612.625 163.452C612.625 162.202 613.101 161.129 614.053 160.234C615.018 159.325 616.176 158.871 617.526 158.871C618.875 158.871 620.026 159.325 620.977 160.234C621.943 161.129 622.426 162.202 622.426 163.452C622.426 164.716 621.943 165.803 620.977 166.712C620.026 167.607 618.875 168.054 617.526 168.054ZM638.39 161.364V205H629.314V161.364H638.39ZM658.056 168.97V161.364H693.895V168.97H680.535V205H671.416V168.97H658.056ZM709.795 205.639C706.428 205.639 703.531 204.957 701.102 203.594C698.687 202.216 696.826 200.27 695.519 197.756C694.212 195.227 693.559 192.237 693.559 188.786C693.559 185.419 694.212 182.464 695.519 179.922C696.826 177.379 698.665 175.398 701.038 173.977C703.424 172.557 706.222 171.847 709.433 171.847C711.592 171.847 713.602 172.195 715.462 172.891C717.337 173.572 718.971 174.602 720.363 175.98C721.769 177.358 722.863 179.091 723.644 181.179C724.425 183.253 724.816 185.682 724.816 188.466V190.959H697.181V185.334H716.272C716.272 184.027 715.988 182.869 715.42 181.861C714.852 180.852 714.063 180.064 713.055 179.496C712.06 178.913 710.903 178.622 709.582 178.622C708.204 178.622 706.982 178.942 705.917 179.581C704.866 180.206 704.042 181.051 703.445 182.116C702.849 183.168 702.543 184.339 702.529 185.632V190.98C702.529 192.599 702.827 193.999 703.424 195.178C704.035 196.357 704.894 197.266 706.002 197.905C707.11 198.544 708.424 198.864 709.944 198.864C710.952 198.864 711.876 198.722 712.714 198.438C713.552 198.153 714.269 197.727 714.866 197.159C715.462 196.591 715.917 195.895 716.229 195.071L724.624 195.625C724.198 197.642 723.325 199.403 722.004 200.909C720.697 202.401 719.006 203.565 716.933 204.403C714.873 205.227 712.494 205.639 709.795 205.639ZM757.969 181.605L749.66 182.116C749.518 181.406 749.212 180.767 748.744 180.199C748.275 179.616 747.657 179.155 746.89 178.814C746.137 178.459 745.235 178.281 744.184 178.281C742.778 178.281 741.592 178.58 740.626 179.176C739.66 179.759 739.177 180.54 739.177 181.52C739.177 182.301 739.489 182.962 740.114 183.501C740.739 184.041 741.812 184.474 743.332 184.801L749.255 185.994C752.437 186.648 754.809 187.699 756.371 189.148C757.934 190.597 758.715 192.5 758.715 194.858C758.715 197.003 758.083 198.885 756.819 200.504C755.569 202.124 753.85 203.388 751.663 204.297C749.489 205.192 746.982 205.639 744.141 205.639C739.809 205.639 736.357 204.737 733.786 202.933C731.229 201.115 729.731 198.643 729.29 195.518L738.218 195.05C738.488 196.371 739.141 197.379 740.178 198.075C741.215 198.757 742.543 199.098 744.163 199.098C745.754 199.098 747.032 198.793 747.998 198.182C748.978 197.557 749.475 196.754 749.489 195.774C749.475 194.95 749.127 194.276 748.445 193.75C747.763 193.21 746.712 192.798 745.292 192.514L739.624 191.385C736.428 190.746 734.049 189.638 732.487 188.061C730.938 186.484 730.164 184.474 730.164 182.031C730.164 179.929 730.732 178.118 731.869 176.598C733.019 175.078 734.631 173.906 736.705 173.082C738.793 172.259 741.237 171.847 744.035 171.847C748.168 171.847 751.421 172.72 753.793 174.467C756.18 176.214 757.572 178.594 757.969 181.605ZM778.488 205V161.364H787.714V180.604H788.289L803.992 161.364H815.05L798.857 180.902L815.242 205H804.205L792.252 187.06L787.714 192.599V205H778.488ZM829.017 205.618C826.929 205.618 825.068 205.256 823.435 204.531C821.801 203.793 820.509 202.706 819.557 201.271C818.619 199.822 818.151 198.018 818.151 195.859C818.151 194.041 818.484 192.514 819.152 191.278C819.82 190.043 820.729 189.048 821.879 188.295C823.03 187.543 824.337 186.974 825.8 186.591C827.277 186.207 828.825 185.938 830.445 185.781C832.348 185.582 833.882 185.398 835.047 185.227C836.212 185.043 837.057 184.773 837.582 184.418C838.108 184.062 838.371 183.537 838.371 182.841V182.713C838.371 181.364 837.945 180.32 837.092 179.581C836.254 178.842 835.061 178.473 833.513 178.473C831.879 178.473 830.58 178.835 829.614 179.56C828.648 180.27 828.009 181.165 827.696 182.244L819.301 181.562C819.727 179.574 820.565 177.855 821.815 176.406C823.065 174.943 824.678 173.821 826.652 173.04C828.641 172.244 830.942 171.847 833.555 171.847C835.374 171.847 837.114 172.06 838.776 172.486C840.452 172.912 841.936 173.572 843.229 174.467C844.536 175.362 845.565 176.513 846.318 177.919C847.071 179.311 847.447 180.98 847.447 182.926V205H838.839V200.462H838.584C838.058 201.484 837.355 202.386 836.474 203.168C835.594 203.935 834.536 204.538 833.3 204.979C832.064 205.405 830.636 205.618 829.017 205.618ZM831.616 199.354C832.952 199.354 834.131 199.091 835.153 198.565C836.176 198.026 836.979 197.301 837.561 196.392C838.143 195.483 838.435 194.453 838.435 193.303V189.83C838.151 190.014 837.76 190.185 837.263 190.341C836.78 190.483 836.233 190.618 835.622 190.746C835.011 190.859 834.401 190.966 833.79 191.065C833.179 191.151 832.625 191.229 832.128 191.3C831.063 191.456 830.132 191.705 829.337 192.045C828.541 192.386 827.923 192.848 827.483 193.43C827.043 193.999 826.822 194.709 826.822 195.561C826.822 196.797 827.27 197.741 828.165 198.395C829.074 199.034 830.224 199.354 831.616 199.354ZM854.489 205V172.273H863.14V178.047H863.523C864.205 176.129 865.342 174.616 866.933 173.509C868.523 172.401 870.427 171.847 872.643 171.847C874.887 171.847 876.798 172.408 878.374 173.53C879.951 174.638 881.002 176.143 881.528 178.047H881.869C882.536 176.172 883.744 174.673 885.491 173.551C887.252 172.415 889.333 171.847 891.734 171.847C894.788 171.847 897.266 172.82 899.17 174.766C901.087 176.697 902.046 179.439 902.046 182.99V205H892.991V184.78C892.991 182.962 892.508 181.598 891.542 180.689C890.576 179.78 889.369 179.325 887.92 179.325C886.272 179.325 884.987 179.851 884.063 180.902C883.14 181.939 882.678 183.31 882.678 185.014V205H873.879V184.588C873.879 182.983 873.417 181.705 872.494 180.753C871.585 179.801 870.384 179.325 868.893 179.325C867.884 179.325 866.975 179.581 866.165 180.092C865.37 180.589 864.738 181.293 864.269 182.202C863.8 183.097 863.566 184.148 863.566 185.355V205H854.489ZM930.203 191.065V172.273H939.28V205H930.565V199.055H930.224C929.486 200.973 928.257 202.514 926.538 203.679C924.834 204.844 922.753 205.426 920.295 205.426C918.108 205.426 916.183 204.929 914.521 203.935C912.859 202.94 911.56 201.527 910.622 199.695C909.699 197.862 909.23 195.668 909.216 193.111V172.273H918.293V191.491C918.307 193.423 918.825 194.95 919.848 196.072C920.871 197.195 922.241 197.756 923.96 197.756C925.054 197.756 926.077 197.507 927.028 197.01C927.98 196.499 928.747 195.746 929.33 194.751C929.926 193.757 930.217 192.528 930.203 191.065Z" fill="#F1F0EA"/>
<path d="M645.202 767.858H635.241C634.957 766.225 634.433 764.778 633.67 763.517C632.906 762.239 631.956 761.156 630.82 760.268C629.683 759.38 628.387 758.714 626.931 758.27C625.493 757.809 623.939 757.578 622.27 757.578C619.305 757.578 616.677 758.324 614.387 759.815C612.096 761.289 610.303 763.455 609.007 766.314C607.711 769.154 607.063 772.626 607.063 776.727C607.063 780.9 607.711 784.415 609.007 787.274C610.321 790.115 612.114 792.263 614.387 793.719C616.677 795.158 619.296 795.877 622.244 795.877C623.877 795.877 625.404 795.664 626.825 795.238C628.263 794.794 629.55 794.146 630.687 793.293C631.841 792.441 632.808 791.393 633.59 790.151C634.389 788.908 634.939 787.487 635.241 785.889L645.202 785.942C644.829 788.535 644.021 790.967 642.778 793.24C641.553 795.513 639.946 797.519 637.958 799.259C635.969 800.982 633.643 802.331 630.98 803.308C628.316 804.266 625.36 804.746 622.111 804.746C617.317 804.746 613.037 803.636 609.273 801.417C605.509 799.197 602.544 795.992 600.378 791.802C598.211 787.612 597.128 782.587 597.128 776.727C597.128 770.85 598.22 765.825 600.404 761.653C602.588 757.462 605.562 754.257 609.326 752.038C613.091 749.819 617.352 748.709 622.111 748.709C625.147 748.709 627.97 749.135 630.58 749.987C633.19 750.839 635.516 752.091 637.558 753.743C639.6 755.376 641.278 757.382 642.592 759.762C643.923 762.123 644.793 764.822 645.202 767.858ZM671.935 804.799C667.834 804.799 664.291 803.947 661.308 802.242C658.343 800.52 656.062 798.087 654.464 794.945C652.866 791.784 652.067 788.064 652.067 783.785C652.067 779.577 652.866 775.884 654.464 772.706C656.079 769.51 658.334 767.024 661.229 765.248C664.123 763.455 667.523 762.558 671.429 762.558C673.951 762.558 676.33 762.967 678.567 763.783C680.822 764.582 682.811 765.825 684.533 767.512C686.273 769.199 687.64 771.347 688.634 773.957C689.629 776.55 690.126 779.639 690.126 783.226V786.182H656.594V779.684H680.884C680.866 777.837 680.467 776.195 679.686 774.756C678.904 773.3 677.812 772.155 676.41 771.321C675.025 770.486 673.409 770.069 671.562 770.069C669.591 770.069 667.86 770.548 666.369 771.507C664.877 772.448 663.714 773.691 662.88 775.236C662.063 776.763 661.646 778.441 661.628 780.27V785.942C661.628 788.322 662.063 790.364 662.933 792.068C663.803 793.755 665.019 795.051 666.582 795.957C668.144 796.844 669.973 797.288 672.068 797.288C673.471 797.288 674.741 797.093 675.877 796.702C677.013 796.294 677.999 795.699 678.833 794.918C679.668 794.137 680.298 793.169 680.724 792.015L689.726 793.027C689.158 795.406 688.075 797.484 686.477 799.259C684.897 801.017 682.873 802.384 680.405 803.361C677.937 804.32 675.114 804.799 671.935 804.799ZM698.282 804V763.091H707.498V770.042H707.977C708.829 767.699 710.241 765.87 712.212 764.556C714.183 763.224 716.535 762.558 719.27 762.558C722.04 762.558 724.374 763.233 726.274 764.582C728.192 765.914 729.541 767.734 730.323 770.042H730.749C731.654 767.77 733.181 765.958 735.33 764.609C737.496 763.242 740.062 762.558 743.027 762.558C746.791 762.558 749.863 763.748 752.242 766.127C754.621 768.506 755.811 771.978 755.811 776.541V804H746.143V778.032C746.143 775.493 745.468 773.638 744.119 772.466C742.769 771.276 741.118 770.681 739.165 770.681C736.839 770.681 735.019 771.409 733.705 772.865C732.409 774.304 731.761 776.177 731.761 778.485V804H722.306V777.633C722.306 775.52 721.667 773.833 720.388 772.572C719.128 771.312 717.476 770.681 715.434 770.681C714.049 770.681 712.789 771.037 711.652 771.747C710.516 772.439 709.611 773.425 708.936 774.703C708.261 775.964 707.924 777.437 707.924 779.124V804H698.282ZM777.364 804.826C774.772 804.826 772.437 804.364 770.359 803.441C768.3 802.5 766.666 801.115 765.459 799.286C764.269 797.457 763.674 795.202 763.674 792.521C763.674 790.213 764.101 788.304 764.953 786.795C765.805 785.286 766.968 784.078 768.442 783.173C769.916 782.267 771.576 781.583 773.422 781.122C775.287 780.642 777.213 780.296 779.202 780.083C781.599 779.835 783.543 779.613 785.034 779.417C786.526 779.204 787.609 778.885 788.284 778.458C788.976 778.015 789.322 777.331 789.322 776.408V776.248C789.322 774.241 788.728 772.688 787.538 771.587C786.348 770.486 784.635 769.936 782.398 769.936C780.036 769.936 778.163 770.451 776.778 771.48C775.411 772.51 774.488 773.727 774.008 775.129L765.006 773.851C765.716 771.365 766.888 769.288 768.522 767.619C770.155 765.932 772.153 764.671 774.514 763.837C776.876 762.984 779.486 762.558 782.345 762.558C784.315 762.558 786.277 762.789 788.231 763.251C790.184 763.712 791.968 764.476 793.584 765.541C795.2 766.589 796.496 768.018 797.472 769.829C798.467 771.64 798.964 773.904 798.964 776.621V804H789.695V798.38H789.376C788.79 799.517 787.964 800.582 786.899 801.576C785.851 802.553 784.528 803.343 782.93 803.947C781.35 804.533 779.495 804.826 777.364 804.826ZM779.868 797.741C781.803 797.741 783.481 797.359 784.901 796.596C786.322 795.815 787.414 794.785 788.177 793.506C788.958 792.228 789.349 790.834 789.349 789.325V784.504C789.047 784.753 788.532 784.984 787.804 785.197C787.094 785.41 786.295 785.596 785.407 785.756C784.52 785.916 783.641 786.058 782.771 786.182C781.901 786.306 781.146 786.413 780.507 786.502C779.069 786.697 777.781 787.017 776.645 787.461C775.509 787.904 774.612 788.526 773.955 789.325C773.298 790.106 772.97 791.118 772.97 792.361C772.97 794.137 773.618 795.477 774.914 796.383C776.21 797.288 777.861 797.741 779.868 797.741ZM840.992 773.904L832.202 774.863C831.954 773.975 831.519 773.141 830.897 772.359C830.294 771.578 829.477 770.948 828.447 770.468C827.417 769.989 826.157 769.749 824.665 769.749C822.659 769.749 820.972 770.184 819.605 771.054C818.255 771.924 817.59 773.052 817.607 774.437C817.59 775.626 818.025 776.594 818.912 777.34C819.818 778.086 821.309 778.698 823.387 779.178L830.365 780.669C834.235 781.504 837.112 782.826 838.994 784.637C840.894 786.449 841.853 788.819 841.87 791.749C841.853 794.323 841.098 796.596 839.607 798.567C838.133 800.52 836.082 802.047 833.454 803.148C830.826 804.249 827.808 804.799 824.399 804.799C819.392 804.799 815.361 803.751 812.307 801.656C809.253 799.543 807.433 796.605 806.847 792.841L816.249 791.935C816.675 793.782 817.581 795.175 818.966 796.116C820.351 797.058 822.153 797.528 824.372 797.528C826.663 797.528 828.5 797.058 829.885 796.116C831.288 795.175 831.989 794.012 831.989 792.627C831.989 791.456 831.537 790.488 830.631 789.724C829.743 788.961 828.358 788.375 826.476 787.967L819.498 786.502C815.574 785.685 812.671 784.309 810.789 782.374C808.907 780.42 807.975 777.952 807.993 774.969C807.975 772.448 808.658 770.264 810.043 768.418C811.446 766.553 813.39 765.115 815.876 764.103C818.38 763.073 821.265 762.558 824.532 762.558C829.326 762.558 833.099 763.579 835.851 765.621C838.621 767.663 840.335 770.424 840.992 773.904ZM599.539 885V830.455H619.993C624.184 830.455 627.699 831.183 630.54 832.638C633.399 834.094 635.556 836.136 637.012 838.764C638.486 841.374 639.223 844.419 639.223 847.9C639.223 851.397 638.477 854.434 636.985 857.008C635.512 859.565 633.337 861.545 630.46 862.947C627.584 864.332 624.05 865.025 619.86 865.025H605.292V856.822H618.528C620.979 856.822 622.985 856.484 624.548 855.81C626.11 855.117 627.264 854.114 628.01 852.8C628.773 851.468 629.155 849.835 629.155 847.9C629.155 845.964 628.773 844.313 628.01 842.946C627.246 841.561 626.083 840.513 624.521 839.803C622.958 839.075 620.943 838.711 618.475 838.711H609.42V885H599.539ZM627.717 860.284L641.22 885H630.194L616.93 860.284H627.717ZM647.892 885V844.091H657.533V885H647.892ZM652.739 838.285C651.212 838.285 649.898 837.779 648.797 836.767C647.697 835.737 647.146 834.503 647.146 833.065C647.146 831.609 647.697 830.375 648.797 829.363C649.898 828.333 651.212 827.818 652.739 827.818C654.284 827.818 655.598 828.333 656.681 829.363C657.782 830.375 658.332 831.609 658.332 833.065C658.332 834.503 657.782 835.737 656.681 836.767C655.598 837.779 654.284 838.285 652.739 838.285ZM677.089 861.03V885H667.447V844.091H676.663V851.042H677.142C678.083 848.752 679.583 846.932 681.643 845.582C683.721 844.233 686.286 843.558 689.34 843.558C692.163 843.558 694.623 844.162 696.718 845.369C698.831 846.577 700.464 848.326 701.618 850.616C702.79 852.907 703.367 855.685 703.349 858.952V885H693.708V860.444C693.708 857.71 692.998 855.57 691.577 854.025C690.175 852.48 688.231 851.708 685.745 851.708C684.058 851.708 682.558 852.081 681.244 852.827C679.947 853.555 678.927 854.611 678.181 855.996C677.453 857.381 677.089 859.059 677.089 861.03ZM730.942 901.193C727.479 901.193 724.505 900.723 722.02 899.782C719.534 898.858 717.536 897.615 716.027 896.053C714.518 894.49 713.47 892.759 712.884 890.859L721.567 888.755C721.957 889.554 722.526 890.344 723.271 891.126C724.017 891.925 725.02 892.582 726.281 893.097C727.559 893.629 729.166 893.896 731.102 893.896C733.836 893.896 736.1 893.23 737.893 891.898C739.686 890.584 740.583 888.418 740.583 885.4V877.649H740.104C739.607 878.643 738.879 879.664 737.92 880.712C736.979 881.76 735.727 882.638 734.164 883.349C732.62 884.059 730.675 884.414 728.332 884.414C725.189 884.414 722.339 883.677 719.782 882.203C717.243 880.712 715.219 878.493 713.71 875.545C712.218 872.58 711.473 868.869 711.473 864.412C711.473 859.92 712.218 856.129 713.71 853.04C715.219 849.933 717.252 847.58 719.809 845.982C722.366 844.366 725.216 843.558 728.358 843.558C730.755 843.558 732.726 843.967 734.271 844.783C735.833 845.582 737.076 846.55 738 847.686C738.923 848.805 739.624 849.862 740.104 850.856H740.636V844.091H750.145V885.666C750.145 889.164 749.31 892.058 747.641 894.348C745.972 896.639 743.69 898.352 740.796 899.489C737.902 900.625 734.617 901.193 730.942 901.193ZM731.022 876.85C733.064 876.85 734.804 876.353 736.242 875.359C737.68 874.364 738.772 872.935 739.518 871.071C740.264 869.206 740.636 866.969 740.636 864.359C740.636 861.784 740.264 859.529 739.518 857.594C738.79 855.659 737.707 854.158 736.269 853.093C734.848 852.01 733.099 851.468 731.022 851.468C728.873 851.468 727.08 852.028 725.642 853.146C724.204 854.265 723.12 855.801 722.392 857.754C721.664 859.689 721.3 861.891 721.3 864.359C721.3 866.863 721.664 869.055 722.392 870.938C723.138 872.802 724.23 874.258 725.668 875.305C727.124 876.335 728.909 876.85 731.022 876.85ZM771.798 885.826C769.205 885.826 766.87 885.364 764.793 884.441C762.733 883.5 761.1 882.115 759.892 880.286C758.703 878.457 758.108 876.202 758.108 873.521C758.108 871.213 758.534 869.304 759.386 867.795C760.239 866.286 761.402 865.078 762.875 864.173C764.349 863.267 766.009 862.583 767.856 862.122C769.72 861.642 771.647 861.296 773.635 861.083C776.032 860.835 777.977 860.613 779.468 860.417C780.96 860.204 782.043 859.885 782.717 859.458C783.41 859.015 783.756 858.331 783.756 857.408V857.248C783.756 855.241 783.161 853.688 781.972 852.587C780.782 851.486 779.069 850.936 776.831 850.936C774.47 850.936 772.597 851.451 771.212 852.48C769.845 853.51 768.921 854.727 768.442 856.129L759.44 854.851C760.15 852.365 761.322 850.288 762.955 848.619C764.589 846.932 766.586 845.671 768.948 844.837C771.309 843.984 773.919 843.558 776.778 843.558C778.749 843.558 780.711 843.789 782.664 844.251C784.617 844.712 786.402 845.476 788.017 846.541C789.633 847.589 790.929 849.018 791.906 850.829C792.9 852.64 793.397 854.904 793.397 857.621V885H784.129V879.38H783.809C783.223 880.517 782.398 881.582 781.332 882.576C780.285 883.553 778.962 884.343 777.364 884.947C775.784 885.533 773.928 885.826 771.798 885.826ZM774.301 878.741C776.237 878.741 777.914 878.359 779.335 877.596C780.755 876.815 781.847 875.785 782.611 874.506C783.392 873.228 783.783 871.834 783.783 870.325V865.504C783.481 865.753 782.966 865.984 782.238 866.197C781.528 866.41 780.729 866.596 779.841 866.756C778.953 866.916 778.074 867.058 777.204 867.182C776.334 867.306 775.58 867.413 774.94 867.502C773.502 867.697 772.215 868.017 771.079 868.461C769.942 868.904 769.045 869.526 768.389 870.325C767.732 871.106 767.403 872.118 767.403 873.361C767.403 875.137 768.051 876.477 769.347 877.383C770.644 878.288 772.295 878.741 774.301 878.741ZM812.733 861.03V885H803.092V844.091H812.307V851.042H812.787C813.728 848.752 815.228 846.932 817.288 845.582C819.365 844.233 821.931 843.558 824.985 843.558C827.808 843.558 830.267 844.162 832.362 845.369C834.475 846.577 836.109 848.326 837.263 850.616C838.435 852.907 839.012 855.685 838.994 858.952V885H829.353V860.444C829.353 857.71 828.642 855.57 827.222 854.025C825.819 852.48 823.875 851.708 821.389 851.708C819.702 851.708 818.202 852.081 816.888 852.827C815.592 853.555 814.571 854.611 813.825 855.996C813.097 857.381 812.733 859.059 812.733 861.03Z" fill="white"/>
<g clip-path="url(#clip4_145_1034)">
<path d="M871.453 508.428C861.874 487.278 845.233 470.942 825.133 460.634C800.454 439.566 767.772 428.886 736.843 420.928C718.773 416.277 700.394 412.225 681.82 410.215C664.399 408.335 646.589 407.865 630.109 414.543C603.369 425.369 576.807 442.888 566.822 471.153C561.676 485.706 560.15 503.355 563.835 518.363C565.913 526.806 569.745 534.683 572.164 543.029C575.444 554.325 574.047 563.531 569.079 574.098C561.919 589.283 555.393 604.031 557.357 621.243C558.932 635.035 565.654 647.595 575.979 656.849C602.866 680.948 642.903 680.251 676.69 677.707C697.033 676.167 717.279 673.931 737.265 669.685C756.959 665.487 775.939 659.312 795.032 653.024C823.931 643.495 855.542 633.236 869.586 603.691C883.76 573.854 885.156 538.67 871.47 508.428H871.453Z" fill="#8B5CF6"/>
<path d="M762.739 541.214C762.739 541.214 787.255 535.542 794.236 552.575C801.218 569.609 830.669 660.382 820.895 667.675C815.262 671.873 789.398 667.967 789.398 667.967L755.774 583.708L762.739 541.214Z" fill="#ED9996"/>
<path d="M775.468 633.041L820.522 620.416C813.346 592.508 798.101 562.007 794.253 552.591C787.271 535.558 762.755 541.231 762.755 541.231L755.79 583.724L775.484 633.058L775.468 633.041Z" fill="#F8FA90"/>
<path d="M780.728 626.283C790.259 624.047 808.41 619.914 817.453 617.856C820.457 617.175 823.412 619.039 824.11 622.037L824.386 623.22C825.052 626.121 823.331 629.022 820.457 629.832L784.544 639.848C781.751 640.626 778.829 639.135 777.822 636.429L776.783 633.641C775.614 630.497 777.465 627.061 780.728 626.299V626.283Z" fill="#0E103D"/>
<path d="M707.018 537.503C707.018 537.503 648.602 541.668 624.216 591.569C607.834 625.1 615.043 677.577 615.043 677.577L746.179 678.161C746.179 678.161 736.437 625.489 762.755 604.988C789.057 584.486 766.652 534.878 707.034 537.519L707.018 537.503Z" fill="#F8FA90"/>
<path d="M721.159 586.674C721.159 586.674 706.807 615.117 704.859 630.61C702.91 646.104 707.018 676.686 707.018 676.686" stroke="#0E103D" stroke-miterlimit="10"/>
<path d="M693.9 540.372C694.517 544.245 700.589 584.616 721.176 584.486C734.197 584.405 748.452 550.711 748.452 550.711L693.916 540.372H693.9Z" fill="#ED9996"/>
<path d="M721.159 584.502L724.26 574.746C724.26 574.746 740.09 562.526 742.428 555.265C742.509 555.006 742.574 554.747 742.623 554.504C744.003 547.389 742.867 562.04 742.867 562.04C742.867 562.04 736.259 583.854 721.159 584.486V584.502Z" fill="#0E103D"/>
<path d="M719.39 584.405V575.702C719.39 575.702 702.651 551.441 698.819 542.689C694.987 533.937 693.9 547.908 693.9 547.908C693.9 547.908 699.55 582.509 719.39 584.405Z" fill="#0E103D"/>
<path d="M766.554 463.195C766.554 463.195 776.555 478.851 771.506 505.381L746.178 479.904L766.554 463.195Z" fill="#282828"/>
<path d="M745.724 558.474C745.545 564.471 747.867 570.305 753.533 572.882C756.147 574.081 759.005 574.616 761.943 574.746C762.82 574.389 763.535 573.968 763.94 573.514C770.337 566.318 775.841 555.865 778.861 546.887C781.589 538.767 783.521 528.622 779.381 520.599C777.611 517.164 773.714 512.674 769.655 516.029C768.486 517.001 768.081 518.493 767.756 519.902C766.327 526.029 768.357 529.821 765.109 536.223C760.434 545.46 753.468 548.054 746.162 553.888C745.87 555.849 745.724 557.778 745.708 558.474H745.724Z" fill="#FFB1A5"/>
<path d="M766.116 548.378C770.37 540.712 772.497 531.604 773.471 522.949C773.682 521.069 774.039 518.006 773.925 515.073C773.925 515.073 773.893 515.057 773.893 515.041C772.578 514.635 771.149 514.814 769.688 516.013C768.519 516.985 768.113 518.476 767.788 519.886C766.359 526.012 768.389 529.805 765.142 536.206C760.466 545.444 753.501 548.037 746.195 553.872C745.902 555.833 745.756 557.761 745.74 558.458C745.659 561.051 746.081 563.596 747.023 565.881C747.364 565.719 747.688 565.541 747.981 565.395C755.546 561.327 761.96 555.881 766.132 548.345L766.116 548.378Z" fill="#ED9996"/>
<path d="M681.122 519.854C687.292 543.662 710.541 571.391 745.643 561.327C765.369 555.671 774.104 538.443 771.49 505.365C766.636 444.201 747.185 455.902 720.916 459.857C683.59 465.464 672.793 487.732 681.122 519.838V519.854Z" fill="#FFB1A5"/>
<path d="M771.019 519.254C771.019 519.254 761.716 519.254 765.661 531.96C767.285 537.146 764.98 543.191 762.739 545.347C757.69 550.209 751.91 552.413 751.926 558.944C751.926 567.242 759.459 558.944 759.459 558.944L773.536 535.834L771.003 519.254H771.019Z" fill="#ED9996"/>
<path d="M766.912 476.857C763.843 466.015 759.638 459.403 754.54 455.546L684.856 472.709C684.645 473.049 684.434 473.389 684.239 473.73L691.204 517.731C691.691 516.126 701.725 502.61 702.212 492.513C702.212 492.513 755.206 494.296 766.895 476.857H766.912Z" fill="#ED9996"/>
<path d="M689.743 539.302C689.743 539.302 699.436 500.033 698.023 484.815C698.023 484.815 733.969 488.559 755.011 481.087C776.052 473.632 782.238 448.237 771.084 452.369C771.084 452.369 774.737 442.807 769.022 438.756C763.307 434.704 758.42 440.344 758.42 440.344C758.42 440.344 757.771 430.604 749.036 429.874C743.613 429.421 740.788 435.919 739.424 440.879C738.678 443.601 736.421 446.908 733.677 446.259C699.663 438.269 664.172 477.409 666.429 501.573C667.435 512.366 672.598 520.697 689.727 539.286L689.743 539.302Z" fill="#282828"/>
<path d="M771.084 452.385C771.084 452.385 774.737 442.823 769.022 438.772C763.307 434.72 758.42 440.36 758.42 440.36C758.42 440.36 757.771 430.62 749.036 429.89C743.597 429.437 740.788 435.936 739.424 440.895C738.678 443.618 736.421 446.924 733.677 446.275C720.234 443.115 706.563 447.345 695.085 455.076C700.67 453.828 706.693 453.714 712.424 453.812C716.906 453.893 721.419 454.022 725.786 454.995C728.238 455.529 730.69 456.34 733.19 456.21C736.892 456.032 740.382 453.666 741.925 450.295C743.142 447.637 743.516 444.088 746.195 442.904C748.484 441.883 751.26 443.439 752.397 445.66C753.533 447.88 753.403 450.522 753.046 452.985C754.28 451.154 755.871 449.112 758.079 449.16C760.466 449.209 762.041 451.753 762.479 454.087C763.031 457.101 762.414 460.294 760.807 462.903C763.567 461.801 766.879 463.292 768.535 465.756C769.477 467.166 769.948 468.803 770.126 470.504C778.212 460.813 778.812 449.517 771.084 452.369V452.385Z" fill="#424242"/>
<path d="M698.397 529.513C701.547 538.67 698.705 547.94 692.065 550.209C685.425 552.478 677.485 546.903 674.336 537.746C671.186 528.589 674.027 519.319 680.667 517.05C687.308 514.781 695.247 520.356 698.397 529.513Z" fill="#FFB1A5"/>
<path d="M725.056 508.752C723.854 509.044 722.799 509.773 721.744 510.373C720.412 511.119 719.146 511.929 718.074 513.015C717.782 513.306 718.074 513.857 718.48 513.712C719.357 513.42 720.169 512.95 720.964 512.447C720.867 512.836 720.818 513.258 720.834 513.695C720.916 515.332 721.922 516.629 723.059 516.564C724.212 516.499 725.056 515.122 724.975 513.485C724.91 512.269 724.358 511.264 723.611 510.843C724.195 510.551 724.796 510.292 725.429 510.146C726.338 509.935 725.949 508.542 725.04 508.752H725.056Z" fill="#282828"/>
<path d="M763.908 506.986C761.651 505.9 758.761 505.398 756.293 505.106C756.131 505.09 755.969 505.203 755.888 505.333C755.855 505.381 755.839 505.43 755.806 505.479C755.758 505.576 755.774 505.673 755.839 505.754C756.358 506.402 757.495 506.645 758.355 506.824C757.933 507.391 757.674 508.217 757.722 509.141C757.803 510.778 758.81 512.075 759.947 512.01C761.099 511.945 761.944 510.567 761.862 508.931C761.846 508.509 761.749 508.104 761.619 507.747C762.203 507.926 762.788 508.088 763.388 508.201C764.087 508.331 764.622 507.326 763.908 506.986Z" fill="#282828"/>
<path d="M767.415 494.199C763.534 490.131 756.894 487.619 751.569 489.855C751.309 489.969 751.309 490.406 751.634 490.39C757.073 490.034 761.7 493.21 766.116 495.868C767.171 496.5 768.227 495.074 767.399 494.199H767.415Z" fill="#282828"/>
<path d="M726.793 493.664C720.526 492.513 712.733 497.343 710.054 502.967C709.47 504.182 711.093 505.138 711.872 504.02C715.428 498.882 720.396 495.803 726.631 494.977C727.296 494.896 727.621 493.826 726.809 493.664H726.793Z" fill="#282828"/>
<path d="M721.874 523.452C721.159 523.419 720.705 523.581 719.99 523.257C719.471 523.03 719.016 522.658 718.61 522.269C717.035 520.762 715.753 518.412 715.444 516.256C715.396 515.899 714.827 515.997 714.827 516.337C714.827 520.016 717.815 525.964 722.28 524.91C722.637 524.829 722.799 524.505 722.832 524.181C722.897 523.598 722.312 523.468 721.874 523.452Z" fill="#ED9996"/>
<path d="M718.854 525.607C717.831 525.445 717.035 524.7 716.402 523.938C715.72 523.111 714.909 522.139 714.844 521.005C714.844 520.794 714.486 520.713 714.438 520.956C713.983 523.338 716.126 526.871 718.659 527.066C719.487 527.131 719.682 525.753 718.854 525.623V525.607Z" fill="#ED9996"/>
<path d="M766.603 510.195C766.587 509.676 765.791 509.66 765.791 510.195C765.775 512.172 765.694 513.63 764.444 515.284C763.486 516.531 762.333 517.374 761.197 518.411C760.693 518.881 761.229 519.724 761.862 519.546C763.518 519.076 764.882 517.261 765.775 515.867C766.895 514.1 766.684 512.188 766.603 510.195Z" fill="#ED9996"/>
<path d="M768.227 515.899C767.869 517.018 766.782 517.423 765.84 517.941C765.142 518.33 764.525 519.368 765.564 519.805C766.424 520.178 767.545 519.157 768.08 518.557C768.714 517.844 769.071 516.969 769.038 515.997C769.038 515.527 768.373 515.446 768.243 515.883L768.227 515.899Z" fill="#ED9996"/>
<path d="M750.335 504.295C750.238 503.291 748.841 503.274 748.76 504.295C748.322 509.773 754.995 519.983 748.874 524.213C747.818 524.943 748.825 526.693 749.897 525.947C756.959 521.021 750.903 510.535 750.335 504.295Z" fill="#282828"/>
<path d="M750.01 540.728C746.568 535.931 742.039 532.398 735.674 533.646C731.566 534.456 726.063 537.568 726.436 542.349C726.468 542.738 727.004 542.835 727.134 542.446C728.222 538.929 732.476 536.676 735.836 535.996C741.146 534.926 745.058 537.892 747.802 542.025C748.711 543.402 750.968 542.057 750.01 540.728Z" fill="#282828"/>
<path d="M776.637 550.29C778.13 544.229 778.082 540.258 778.13 534.861C778.13 533.257 776.832 530.858 776.523 529.286C775.987 526.499 774.477 524.003 773 521.572C772.221 520.292 770.954 518.801 769.525 519.271C769.103 519.4 768.762 519.692 768.454 520C766.522 521.896 765.531 524.684 765.84 527.374C766.067 529.27 766.879 531.053 767.334 532.9C768.356 537.13 767.301 541.798 764.574 545.201C762.901 547.292 760.661 548.848 758.712 550.679C756.618 552.624 754.8 554.941 753.858 557.632C752.916 560.322 752.933 563.434 754.361 565.913" fill="#FFB1A5"/>
<path d="M778.828 534.245C778.293 530.712 776.523 527.504 774.948 524.359C774.851 524.181 774.575 524.311 774.623 524.489C775.695 528.249 777.643 531.652 777.952 535.607C778.26 539.529 777.643 543.5 777.14 547.389C777.059 547.973 778.065 548.102 778.163 547.535C778.926 543.24 779.478 538.589 778.828 534.245Z" fill="#282828"/>
<path d="M750.238 569.868C752.884 570.84 766.96 653.932 779.121 667.14C798.993 688.728 823.428 671.597 822.649 661.987C820.652 636.947 772.919 559.544 772.919 559.544L750.238 569.852V569.868Z" fill="#FFB1A5"/>
<path d="M649.3 563.871C659.983 550.679 689.175 548.961 688.493 574.989C687.811 601.033 684.255 643.041 684.255 643.041L755.774 629.752L763.843 653.948C763.843 653.948 673.962 696.815 653.895 681.807C628.405 662.748 630.337 587.322 649.316 563.871H649.3Z" fill="#FFB1A5"/>
<path d="M635.256 632.49C636.117 645.472 638.666 657.821 643.098 667.416C652.222 659.556 672.403 648.697 684.304 642.603C684.499 640.221 685.457 628.73 686.415 614.793C681.106 612.702 676.186 610.854 676.186 610.854L635.272 632.49H635.256Z" fill="#ED9996"/>
<path d="M804.936 629.735L805.033 630.059C807.712 625.732 804.367 622.766 803.052 621.826C803.085 621.713 803.117 621.616 803.133 621.502C805.455 618.066 800.796 614.647 800.796 614.647C801.088 612.978 797.906 610.822 797.906 610.822V616.802L800.86 619.46L788.635 617.985L768.665 642.701C769.704 646.153 770.759 649.41 771.815 652.376C781.654 649.945 786.443 642.571 786.443 642.571C786.443 642.571 790.762 642.458 797.159 641.501C803.556 640.561 804.173 636.267 804.173 636.267L801.656 632.815C803.929 632.166 804.692 630.821 804.919 629.735H804.936ZM801.526 623.755C802.192 623.512 802.581 623.009 802.825 622.442L804.351 627.742C802.987 626.753 799.886 624.322 801.51 623.755H801.526Z" fill="#ED9996"/>
<path d="M753.809 631.729C757.868 625.489 761.927 619.233 765.986 612.994C767.723 610.336 769.59 608.521 772.48 607.176C774.412 606.268 776.588 606.106 778.715 606.041C784.673 605.847 790.908 606.317 796.038 609.331C797.175 609.995 798.263 610.806 798.961 611.908C799.659 613.01 799.919 613.48 799.334 614.663C802.5 616.122 804.643 619.768 802.111 622.005C803.799 622.799 805.244 624.857 805.26 626.721C805.293 628.585 803.864 630.108 802.208 630.967C803.491 631.891 804.676 633.398 804.53 634.97C804.384 636.542 803.345 638.001 801.916 638.665C800.828 639.168 799.578 639.232 798.376 639.249C794.171 639.33 790.518 640.14 785.875 640.172C785.696 640.172 785.501 640.124 785.339 640.221C785.16 640.334 785.096 640.545 785.031 640.756C784.446 642.603 782.887 643.981 781.329 645.148C775.549 649.475 768.308 653.494 761.18 654.645" fill="#FFB1A5"/>
<path d="M798.945 611.908C798.246 610.806 797.159 609.995 796.022 609.331C790.892 606.317 784.657 605.847 778.699 606.041C776.572 606.106 774.396 606.268 772.464 607.176C769.59 608.537 767.707 610.336 765.97 612.994C763.843 616.267 761.7 619.557 759.573 622.831C764.687 617.726 770.922 613.739 777.725 611.292C779.478 610.66 781.296 610.125 783.147 610.028C784.852 609.947 786.541 610.239 788.197 610.611C792.044 611.47 795.811 612.767 799.383 614.42C799.821 613.415 799.578 612.913 798.928 611.892L798.945 611.908Z" fill="#FFCBBD"/>
<path d="M798.279 613.593C791.833 611.405 785.096 608.958 778.212 610.012C777.578 610.109 777.854 611.065 778.471 610.968C785.42 609.898 791.444 612.961 798.084 614.242C798.506 614.323 798.685 613.723 798.263 613.593H798.279Z" fill="#282828"/>
<path d="M800.665 621.356C795.162 619.087 788.927 618.553 783.082 619.703C782.449 619.833 782.725 620.74 783.342 620.643C789.219 619.736 794.804 620.481 800.568 621.713C800.812 621.761 800.877 621.454 800.665 621.356Z" fill="#282828"/>
<path d="M800.877 630.076C795.308 629.411 789.739 627.175 784.219 629.265C783.651 629.476 783.894 630.416 784.479 630.189C789.934 628.212 795.34 630.659 800.877 630.61C801.234 630.61 801.218 630.108 800.877 630.059V630.076Z" fill="#282828"/>
<path d="M688.493 575.005C689.175 548.961 659.999 550.679 649.3 563.887C636.36 579.867 629.087 619.768 633 649.994L688.282 635.699C689.305 622.766 687.974 594.664 688.493 575.021V575.005Z" fill="#F8FA90"/>
<path d="M633.21 647.579C641.004 643.219 669.465 633.998 684.402 633.058C687.844 632.831 690.523 636.866 689.922 640.27C689.841 640.74 689.142 642.069 688.688 642.247C670.585 648.438 652.401 655.31 633.681 663.688C632.821 664.045 631.863 663.461 631.765 662.538L630.678 651.258C630.515 649.589 631.733 648.422 633.21 647.595V647.579Z" fill="#0E103D"/>
</g>
</g>
<defs>
<linearGradient id="paint0_linear_145_1034" x1="719.5" y1="0" x2="719.5" y2="1356" gradientUnits="userSpaceOnUse">
<stop stop-color="#1A1C56"/>
<stop offset="1" stop-color="#0E103D"/>
</linearGradient>
<clipPath id="clip0_145_1034">
<rect width="1440" height="1356" fill="white"/>
</clipPath>
<clipPath id="clip1_145_1034">
<rect width="40" height="20" fill="white" transform="translate(152 73) rotate(-180)"/>
</clipPath>
<clipPath id="clip2_145_1034">
<rect width="39" height="39" fill="white" transform="translate(888 1056)"/>
</clipPath>
<clipPath id="clip3_145_1034">
<rect width="38" height="39" fill="white" transform="translate(946 1056)"/>
</clipPath>
<clipPath id="clip4_145_1034">
<rect width="324" height="276" fill="white" transform="translate(557 409)"/>
</clipPath>
</defs>
</svg>
