<?xml version="1.0" encoding="UTF-8"?><svg id="Layer_1" xmlns="http://www.w3.org/2000/svg" xmlns:xlink="http://www.w3.org/1999/xlink" viewBox="0 0 2922 932"><defs><linearGradient id="linear-gradient" x1="-4.05" y1="-162.28" x2="4313.31" y2="1689.2" gradientUnits="userSpaceOnUse"><stop offset="0" stop-color="#8b5cf6"/><stop offset=".01" stop-color="#895bf4"/><stop offset=".68" stop-color="#3a2f94"/><stop offset=".99" stop-color="#1b1e6e"/></linearGradient></defs><rect x="0" y="0" width="2922" height="932" style="fill:url(#linear-gradient);"/><path d="m845.42,369.43c-4.66-6.87-16.11-23.44-35.11-36.87-53.87-38.06-132.05-25.05-182.29.13-89.47,44.85-109.83,138.49-112.72,152.98-5.02,25.13-19.61,98.12,27.22,152.63,26.81,31.21,71.36,53.59,115.65,54.45.79.02,3.1.04,5.94-.02,72.82-1.34,117.62-52.42,124.9-61v61h85.71v-49.79c.37-15.04.73-30.08,1.1-45.11.31-12.25.69-30.26.83-52.08.21-32.48.31-48.72-.3-59.53-1.95-34.78-4.35-77.63-30.92-116.78Zm-75.02,178.7c-35.94,62.26-102.46,91.15-148.57,64.52-46.11-26.62-54.35-98.67-18.41-160.93,35.94-62.26,102.46-91.15,148.57-64.52,46.11,26.62,54.35,98.67,18.41,160.93Zm288.28-70.65v218.6h-101.36v-377.73h95.62l1.69,94.26h-6.08c9.91-31.53,24.94-55.92,45.11-73.15,20.15-17.23,46.23-25.85,78.22-25.85,26.13,0,48.93,5.69,68.42,17.06,19.48,11.38,34.57,27.71,45.27,48.99,10.69,21.29,16.05,46.68,16.05,76.19v240.22h-101.36v-222.65c0-23.42-6.03-41.78-18.08-55.07-12.05-13.29-28.78-19.93-50.17-19.93-14.19,0-26.86,3.1-38.01,9.29-11.15,6.2-19.82,15.15-26.02,26.86-6.2,11.71-9.29,26.01-9.29,42.91Zm498.35,226.03c-37.84,0-70.61-8.16-98.32-24.5-27.7-16.33-49.05-39.08-64.03-68.25-14.98-29.17-22.47-63.12-22.47-101.87s7.49-73.37,22.47-102.54c14.98-29.17,36.32-51.92,64.03-68.25,27.7-16.33,60.48-24.5,98.32-24.5s70.89,8.17,98.49,24.5c27.59,16.33,48.87,39.08,63.86,68.25,14.98,29.17,22.47,63.35,22.47,102.54s-7.49,72.7-22.47,101.87c-14.98,29.17-36.27,51.92-63.86,68.25-27.59,16.34-60.43,24.5-98.49,24.5Zm0-79.74c18.02,0,33.11-5.01,45.27-15.03,12.16-10.02,21.29-23.76,27.37-41.22,6.08-17.45,9.12-37.11,9.12-58.96s-3.04-42.12-9.12-59.47c-6.08-17.34-15.2-30.97-27.37-40.88-12.16-9.91-27.26-14.87-45.27-14.87s-33.06,4.96-45.11,14.87c-12.05,9.91-21.12,23.54-27.2,40.88-6.08,17.35-9.12,37.17-9.12,59.47s3.04,41.5,9.12,58.96c6.08,17.46,15.15,31.2,27.2,41.22,12.05,10.02,27.08,15.03,45.11,15.03Zm442.94-305.43v77.37h-224v-77.37h224Zm-171.97-89.87h101.36v357.12c0,11.94,2.64,20.78,7.94,26.52,5.29,5.74,14.13,8.62,26.52,8.62,3.83,0,9.23-.51,16.22-1.52,6.98-1.02,12.27-1.97,15.88-2.87l14.53,76.02c-11.27,3.38-22.47,5.74-33.62,7.1-11.15,1.35-21.79,2.03-31.93,2.03-37.84,0-66.79-9.23-86.83-27.71-20.05-18.46-30.07-44.94-30.07-79.4V228.48Zm400.03,475.04c-37.84,0-70.61-8.16-98.32-24.5-27.7-16.33-49.05-39.08-64.03-68.25-14.98-29.17-22.47-63.12-22.47-101.87s7.49-73.37,22.47-102.54c14.98-29.17,36.32-51.92,64.03-68.25,27.7-16.33,60.48-24.5,98.32-24.5s70.89,8.17,98.49,24.5c27.59,16.33,48.87,39.08,63.86,68.25,14.98,29.17,22.47,63.35,22.47,102.54s-7.49,72.7-22.47,101.87c-14.98,29.17-36.27,51.92-63.86,68.25-27.59,16.34-60.43,24.5-98.49,24.5Zm0-79.74c18.02,0,33.11-5.01,45.27-15.03,12.16-10.02,21.29-23.76,27.37-41.22,6.08-17.45,9.12-37.11,9.12-58.96s-3.04-42.12-9.12-59.47c-6.08-17.34-15.2-30.97-27.37-40.88-12.16-9.91-27.26-14.87-45.27-14.87s-33.06,4.96-45.11,14.87c-12.05,9.91-21.12,23.54-27.2,40.88-6.08,17.35-9.12,37.17-9.12,59.47s3.04,41.5,9.12,58.96c6.08,17.46,15.15,31.2,27.2,41.22,12.05,10.02,27.08,15.03,45.11,15.03ZM549.11,364.9" style="fill:#fff;"/></svg>