<?xml version="1.0" encoding="UTF-8"?><svg id="Layer_1" xmlns="http://www.w3.org/2000/svg" viewBox="0 0 1507.37 568.52"><path d="m626.01,28.14c-.93-1.37-3.22-4.68-7.01-7.36-10.75-7.6-26.36-5-36.39.03-17.86,8.95-21.92,27.64-22.5,30.54-1,5.02-3.91,19.59,5.43,30.47,5.35,6.23,14.24,10.7,23.08,10.87.16,0,.62,0,1.19,0,14.54-.27,23.48-10.46,24.93-12.18v12.18h17.11v-9.94c.07-3,.15-6,.22-9.01.06-2.45.14-6.04.17-10.4.04-6.48.06-9.73-.06-11.88-.39-6.94-.87-15.5-6.17-23.31Zm-14.98,35.67c-7.17,12.43-20.45,18.19-29.66,12.88-9.2-5.31-10.85-19.7-3.67-32.12,7.17-12.43,20.45-18.19,29.66-12.88s10.85,19.7,3.67,32.12Zm57.54-14.1v43.63h-20.23V17.94h19.09l.34,18.82h-1.21c1.98-6.29,4.98-11.16,9-14.6,4.02-3.44,9.23-5.16,15.61-5.16,5.22,0,9.77,1.14,13.66,3.41,3.89,2.27,6.9,5.53,9.04,9.78,2.13,4.25,3.2,9.32,3.2,15.21v47.95h-20.23v-44.44c0-4.68-1.2-8.34-3.61-10.99-2.41-2.65-5.74-3.98-10.02-3.98-2.83,0-5.36.62-7.59,1.85-2.23,1.24-3.96,3.02-5.19,5.36-1.24,2.34-1.85,5.19-1.85,8.56Zm99.48,45.12c-7.55,0-14.1-1.63-19.63-4.89-5.53-3.26-9.79-7.8-12.78-13.62-2.99-5.82-4.48-12.6-4.48-20.33s1.49-14.65,4.48-20.47c2.99-5.82,7.25-10.36,12.78-13.62,5.53-3.26,12.07-4.89,19.63-4.89s14.15,1.63,19.66,4.89c5.51,3.26,9.76,7.8,12.75,13.62,2.99,5.82,4.48,12.65,4.48,20.47s-1.5,14.51-4.48,20.33c-2.99,5.82-7.24,10.36-12.75,13.62-5.51,3.26-12.06,4.89-19.66,4.89Zm0-15.92c3.6,0,6.61-1,9.04-3s4.25-4.74,5.46-8.23c1.21-3.48,1.82-7.41,1.82-11.77s-.61-8.41-1.82-11.87c-1.21-3.46-3.03-6.18-5.46-8.16-2.43-1.98-5.44-2.97-9.04-2.97s-6.6.99-9,2.97c-2.41,1.98-4.21,4.7-5.43,8.16-1.21,3.46-1.82,7.42-1.82,11.87s.61,8.28,1.82,11.77c1.21,3.49,3.02,6.23,5.43,8.23,2.4,2,5.41,3,9,3Zm88.41-60.97v15.44h-44.71v-15.44h44.71ZM822.14,0h20.23v71.29c0,2.38.53,4.15,1.58,5.29,1.06,1.15,2.82,1.72,5.29,1.72.76,0,1.84-.1,3.24-.3,1.39-.2,2.45-.39,3.17-.57l2.9,15.17c-2.25.67-4.48,1.15-6.71,1.42-2.23.27-4.35.4-6.37.4-7.55,0-13.33-1.84-17.33-5.53-4-3.69-6-8.97-6-15.85V0Zm79.85,94.82c-7.55,0-14.1-1.63-19.63-4.89-5.53-3.26-9.79-7.8-12.78-13.62-2.99-5.82-4.48-12.6-4.48-20.33s1.49-14.65,4.48-20.47c2.99-5.82,7.25-10.36,12.78-13.62,5.53-3.26,12.07-4.89,19.63-4.89s14.15,1.63,19.66,4.89c5.51,3.26,9.76,7.8,12.75,13.62,2.99,5.82,4.48,12.65,4.48,20.47s-1.5,14.51-4.48,20.33c-2.99,5.82-7.24,10.36-12.75,13.62-5.51,3.26-12.06,4.89-19.66,4.89Zm0-15.92c3.6,0,6.61-1,9.04-3s4.25-4.74,5.46-8.23c1.21-3.48,1.82-7.41,1.82-11.77s-.61-8.41-1.82-11.87c-1.21-3.46-3.03-6.18-5.46-8.16-2.43-1.98-5.44-2.97-9.04-2.97s-6.6.99-9,2.97c-2.41,1.98-4.21,4.7-5.43,8.16-1.21,3.46-1.82,7.42-1.82,11.87s.61,8.28,1.82,11.77c1.21,3.49,3.02,6.23,5.43,8.23,2.4,2,5.41,3,9,3Zm-335.13-51.67"/><path d="m296.71,436.87s-111.78,66.7-248.61,0c-22.48-13.06-31.48-22.39-43.04-15.39s-.64,16.52,6.42,21.32,56.53,43.04,160.6,45.38c98.93-3.73,143.9-35.91,162.53-47.11,10.92-6.06,14.78-14.93,6.1-19.82s-17.34-1.87-24.09,2.57c-6.75,4.43-9.42,7.68-19.91,13.06Z" style="fill:#fffffe;"/><rect x="442.88" y="141.8" width="612" height="213.36" style="fill:#282828;"/><rect x="442.88" y="355.16" width="612" height="213.36" style="fill:#fff;"/><path d="m1292.37,19.33c-.64-.94-2.21-3.22-4.82-5.06-7.39-5.22-18.11-3.44-25,.02-12.27,6.15-15.06,19-15.46,20.98-.69,3.45-2.69,13.46,3.73,20.94,3.68,4.28,9.79,7.35,15.86,7.47.11,0,.43,0,.82,0,9.99-.18,16.13-7.19,17.13-8.37v8.37h11.76v-6.83c.05-2.06.1-4.13.15-6.19.04-1.68.09-4.15.11-7.14.03-4.46.04-6.68-.04-8.17-.27-4.77-.6-10.65-4.24-16.02Zm-10.29,24.51c-4.93,8.54-14.05,12.5-20.38,8.85-6.32-3.65-7.45-13.53-2.52-22.07,4.93-8.54,14.05-12.5,20.38-8.85s7.45,13.53,2.52,22.07Zm39.54-9.69v29.98h-13.9V12.33h13.12l.23,12.93h-.83c1.36-4.33,3.42-7.67,6.19-10.03,2.76-2.36,6.34-3.55,10.73-3.55,3.58,0,6.71.78,9.38,2.34,2.67,1.56,4.74,3.8,6.21,6.72,1.47,2.92,2.2,6.4,2.2,10.45v32.95h-13.9v-30.54c0-3.21-.83-5.73-2.48-7.55-1.65-1.82-3.95-2.73-6.88-2.73-1.95,0-3.68.43-5.21,1.27-1.53.85-2.72,2.08-3.57,3.68-.85,1.61-1.27,3.57-1.27,5.89Zm68.36,31c-5.19,0-9.69-1.12-13.49-3.36-3.8-2.24-6.73-5.36-8.78-9.36-2.06-4-3.08-8.66-3.08-13.97s1.03-10.06,3.08-14.07c2.05-4,4.98-7.12,8.78-9.36,3.8-2.24,8.3-3.36,13.49-3.36s9.72,1.12,13.51,3.36c3.78,2.24,6.7,5.36,8.76,9.36,2.05,4,3.08,8.69,3.08,14.07s-1.03,9.97-3.08,13.97c-2.06,4-4.97,7.12-8.76,9.36-3.79,2.24-8.29,3.36-13.51,3.36Zm0-10.94c2.47,0,4.54-.69,6.21-2.06s2.92-3.26,3.75-5.65c.83-2.39,1.25-5.09,1.25-8.09s-.42-5.78-1.25-8.16c-.83-2.38-2.09-4.25-3.75-5.61-1.67-1.36-3.74-2.04-6.21-2.04s-4.53.68-6.19,2.04c-1.65,1.36-2.9,3.23-3.73,5.61-.83,2.38-1.25,5.1-1.25,8.16s.42,5.69,1.25,8.09c.83,2.39,2.08,4.28,3.73,5.65,1.65,1.37,3.71,2.06,6.19,2.06Zm60.76-41.89v10.61h-30.73v-10.61h30.73Zm-23.59-12.33h13.9v48.99c0,1.64.36,2.85,1.09,3.64.73.79,1.94,1.18,3.64,1.18.52,0,1.27-.07,2.22-.21.96-.14,1.68-.27,2.18-.39l1.99,10.43c-1.55.46-3.08.79-4.61.97-1.53.19-2.99.28-4.38.28-5.19,0-9.16-1.27-11.91-3.8-2.75-2.53-4.12-6.16-4.12-10.89V0Zm54.87,65.16c-5.19,0-9.69-1.12-13.49-3.36-3.8-2.24-6.73-5.36-8.78-9.36-2.06-4-3.08-8.66-3.08-13.97s1.03-10.06,3.08-14.07c2.05-4,4.98-7.12,8.78-9.36,3.8-2.24,8.3-3.36,13.49-3.36s9.72,1.12,13.51,3.36c3.78,2.24,6.7,5.36,8.76,9.36,2.05,4,3.08,8.69,3.08,14.07s-1.03,9.97-3.08,13.97c-2.06,4-4.97,7.12-8.76,9.36-3.79,2.24-8.29,3.36-13.51,3.36Zm0-10.94c2.47,0,4.54-.69,6.21-2.06s2.92-3.26,3.75-5.65c.83-2.39,1.25-5.09,1.25-8.09s-.42-5.78-1.25-8.16c-.83-2.38-2.09-4.25-3.75-5.61-1.67-1.36-3.74-2.04-6.21-2.04s-4.53.68-6.19,2.04c-1.65,1.36-2.9,3.23-3.73,5.61-.83,2.38-1.25,5.1-1.25,8.16s.42,5.69,1.25,8.09c.83,2.39,2.08,4.28,3.73,5.65,1.65,1.37,3.71,2.06,6.19,2.06Zm-230.29-35.51" style="fill:#fff;"/><path d="m626.01,442.56c-.93-1.37-3.22-4.68-7.01-7.36-10.75-7.6-26.36-5-36.39.03-17.86,8.95-21.92,27.64-22.5,30.54-1,5.02-3.91,19.59,5.43,30.47,5.35,6.23,14.24,10.7,23.08,10.87.16,0,.62,0,1.19,0,14.54-.27,23.48-10.46,24.93-12.18v12.18h17.11v-9.94c.07-3,.15-6,.22-9.01.06-2.45.14-6.04.17-10.4.04-6.48.06-9.73-.06-11.88-.39-6.94-.87-15.5-6.17-23.31Zm-14.98,35.67c-7.17,12.43-20.45,18.19-29.66,12.88-9.2-5.31-10.85-19.7-3.67-32.12,7.17-12.43,20.45-18.19,29.66-12.88s10.85,19.7,3.67,32.12Zm57.54-14.1v43.63h-20.23v-75.4h19.09l.34,18.82h-1.21c1.98-6.29,4.98-11.16,9-14.6,4.02-3.44,9.23-5.16,15.61-5.16,5.22,0,9.77,1.14,13.66,3.41,3.89,2.27,6.9,5.53,9.04,9.78,2.13,4.25,3.2,9.32,3.2,15.21v47.95h-20.23v-44.44c0-4.68-1.2-8.34-3.61-10.99-2.41-2.65-5.74-3.98-10.02-3.98-2.83,0-5.36.62-7.59,1.85-2.23,1.24-3.96,3.02-5.19,5.36-1.24,2.34-1.85,5.19-1.85,8.56Zm99.48,45.12c-7.55,0-14.1-1.63-19.63-4.89-5.53-3.26-9.79-7.8-12.78-13.62-2.99-5.82-4.48-12.6-4.48-20.33s1.49-14.65,4.48-20.47c2.99-5.82,7.25-10.36,12.78-13.62,5.53-3.26,12.07-4.89,19.63-4.89s14.15,1.63,19.66,4.89c5.51,3.26,9.76,7.8,12.75,13.62,2.99,5.82,4.48,12.65,4.48,20.47s-1.5,14.51-4.48,20.33c-2.99,5.82-7.24,10.36-12.75,13.62-5.51,3.26-12.06,4.89-19.66,4.89Zm0-15.92c3.6,0,6.61-1,9.04-3s4.25-4.74,5.46-8.23c1.21-3.48,1.82-7.41,1.82-11.77s-.61-8.41-1.82-11.87c-1.21-3.46-3.03-6.18-5.46-8.16-2.43-1.98-5.44-2.97-9.04-2.97s-6.6.99-9,2.97c-2.41,1.98-4.21,4.7-5.43,8.16-1.21,3.46-1.82,7.42-1.82,11.87s.61,8.28,1.82,11.77c1.21,3.49,3.02,6.23,5.43,8.23,2.4,2,5.41,3,9,3Zm88.41-60.97v15.44h-44.71v-15.44h44.71Zm-34.33-17.94h20.23v71.29c0,2.38.53,4.15,1.58,5.29,1.06,1.15,2.82,1.72,5.29,1.72.76,0,1.84-.1,3.24-.3,1.39-.2,2.45-.39,3.17-.57l2.9,15.17c-2.25.67-4.48,1.15-6.71,1.42-2.23.27-4.35.4-6.37.4-7.55,0-13.33-1.84-17.33-5.53-4-3.69-6-8.97-6-15.85v-73.04Zm79.85,94.82c-7.55,0-14.1-1.63-19.63-4.89-5.53-3.26-9.79-7.8-12.78-13.62-2.99-5.82-4.48-12.6-4.48-20.33s1.49-14.65,4.48-20.47c2.99-5.82,7.25-10.36,12.78-13.62,5.53-3.26,12.07-4.89,19.63-4.89s14.15,1.63,19.66,4.89c5.51,3.26,9.76,7.8,12.75,13.62,2.99,5.82,4.48,12.65,4.48,20.47s-1.5,14.51-4.48,20.33c-2.99,5.82-7.24,10.36-12.75,13.62-5.51,3.26-12.06,4.89-19.66,4.89Zm0-15.92c3.6,0,6.61-1,9.04-3s4.25-4.74,5.46-8.23c1.21-3.48,1.82-7.41,1.82-11.77s-.61-8.41-1.82-11.87c-1.21-3.46-3.03-6.18-5.46-8.16-2.43-1.98-5.44-2.97-9.04-2.97s-6.6.99-9,2.97c-2.41,1.98-4.21,4.7-5.43,8.16-1.21,3.46-1.82,7.42-1.82,11.87s.61,8.28,1.82,11.77c1.21,3.49,3.02,6.23,5.43,8.23,2.4,2,5.41,3,9,3Zm-335.13-51.67" style="fill:#282828;"/></svg>